<svg xmlns="http://www.w3.org/2000/svg" viewBox="-178.3 -236.8 1000 1000"><path fill="#4A4B4C" d="M395.5 33.7c-12 8-70.8 3.2-89.5-4.4-8.4-3.4-14.5-2.2-18.6.2 1.5-22.5 3.5-47.1 3.5-66.3 14.1-26.9-13.8-86.7-50.6-115.6 38.1 46 50.4 113 40.9 116.9-9.5 3.8-8.7 99.3-7.3 107.6 1.4 8.3-15.9 51.1-32.9 61.4-15.8 9.6-14.3 47.1-14.4 47 0 0-1 46.9-.9 70.1 0 6.4 0 13.4-.1 20.9-.1 7.5-.2 15-.4 22.3-.2 7.3-.4 14.3-.7 20.9-.3 6.6-.6 12.1-1 16.4 4.3-.4 8.6-.6 12.7-.6s8.4.2 12.7.6c-.9-8.1-1.6-16.2-1.8-24.2-.3-8-.4-16.3-.4-24.7v-17c0-2.3.9-3.4 2.8-3.4.8 0 1.5.3 2.3.8.8.6 1.4 1.2 2 2 3.4 3.6 7.4 8.1 12.2 13.6 4.7 5.5 9.7 11.3 14.8 17.5 5.2 6.2 10.4 12.5 15.7 18.8 5.3 6.3 10 11.8 14.1 16.5 2.6-.4 5.2-.6 7.6-.6h14.3c2.5 0 5.4.2 8.6.6a1404.6 1404.6 0 0 1-34.9-38.4c-11.4-13-22.5-26-33.2-39 9.8-9.6 20.1-19.1 30.9-28.4 10.8-9.3 22.2-18.8 34.1-28.4-3.2.4-5.8.7-7.9 1-2.1.3-4.1.4-6.2.4-3.4 0-7-.5-10.7-1.4-4.3 5.1-9.1 10.5-14.4 16.1-5.3 5.7-10.4 11-15.4 16s-9.5 9.4-13.6 13.1c-4.1 3.8-6.9 6.3-8.6 7.6-2.3 1.7-4.3 3.2-6.1 4.5-1.8 1.3-3.4 2-4.9 2-2.3 0-3.4-1.8-3.4-5.4.2-22.9-2.6-47.2-.7-70.1l1.5-32.3s46.3-44.6 40.3-61.6c-2.3-6.5-2.4-20.2-1.6-36.9 9.2-2.1 34.4-7.4 46.7-2.9 15.2 5.5 50.9 3.8 67.4-2 16.5-5.8 38.1-39.6 38.1-39.6s-31 20.4-43 28.4z"/><circle cx="348.7" cy="105.1" r="6.3" fill="#F8DDDE"/><circle cx="295.7" cy="140.2" r="6.3" fill="#F8DDDE"/><circle cx="414.2" cy="87.5" r="11" fill="#F8DDDE"/><path fill="#F8DDDE" d="M330.6 89.5a8.2 8.2 0 1 0-4.7-15.7 8.12 8.12 0 0 0-5.5 10.2c1.3 4.3 5.9 6.8 10.2 5.5zm-4.1-13.7c3.2-1 6.7.9 7.6 4.1 1 3.2-.9 6.7-4.1 7.6s-6.7-.9-7.6-4.1c-1-3.2.9-6.6 4.1-7.6z"/><path fill="#FFCCCA" d="M480.1 36.9c2.2 1.4 4.3 2 6.1 1.2 1.8-.7 2.9-2.5 3.5-5.1 5.4 1.4 11.1 7.1 14.3 15.2 4.4 10.9 2.6 21.9-4 24.5-6.6 2.6-15.4-4.1-19.8-14.9-3.2-8.1-3.1-16.2-.1-20.9z"/><path fill="#F1423D" d="M397.5-53c.4 2.8 1.5 4.9 3.3 5.8 1.8.9 4.1.6 6.6-.8 2.7 5.3 2.2 14-2 22.4-5.7 11.3-15.8 17.7-22.6 14.3-6.8-3.4-7.7-15.3-2.1-26.6C385-46.4 391.6-52 397.5-53zM223.5 97.9c.3 2.2 1.2 3.8 2.6 4.5s3.2.4 5.1-.6c2.1 4.1 1.7 10.9-1.6 17.3-4.4 8.7-12.2 13.7-17.5 11.1-5.3-2.6-6-11.9-1.6-20.6 3.3-6.6 8.4-11 13-11.7zM522.9-56.2c-1.5 2.4-2.1 4.6-1.3 6.5s2.8 3.1 5.5 3.8c-1.5 5.8-7.6 12-16.3 15.5-11.7 4.8-23.5 2.9-26.4-4.1-2.9-7 4.3-16.6 16-21.4 8.7-3.6 17.4-3.5 22.5-.3z"/><path fill="#FFCCCA" d="M277.3 11.4c-.8-2.3-2.2-3.9-3.9-4.3-1.7-.4-3.6.3-5.5 1.9-3.3-4-4.4-11.5-2.4-19.4.3-1.2.7-2.4 1.1-3.5-1.2.2-2.4.4-3.7.4-8.1.5-15.3-2-18.6-6 1.9-1.5 3-3.2 2.9-5-.1-1.8-1.4-3.4-3.5-4.6 2.8-4.4 9.6-7.8 17.7-8.3 1.3-.1 2.5-.1 3.7 0-.6-1.1-1.1-2.2-1.6-3.4-3-7.6-2.8-15.1 0-19.5 2 1.4 4 1.8 5.7 1.2 1.7-.7 2.8-2.4 3.3-4.8 5 1.3 10.3 6.7 13.3 14.3.5 1.2.8 2.3 1.2 3.5.8-.9 1.7-1.7 2.7-2.5 6.3-5.2 13.5-7.4 18.6-6.1-.7 2.4-.5 4.4.6 5.8 1.1 1.4 3.1 1.9 5.5 1.7.3 5.2-3.2 11.9-9.5 17.1-1 .8-2 1.5-3 2.2 1.1.5 2.2 1.1 3.2 1.8 6.9 4.4 11.2 10.6 11.5 15.8-2.4.1-4.3.9-5.3 2.4s-.8 3.5.1 5.8c-4.9 1.9-12.3.6-19.2-3.7-1.1-.7-2.1-1.4-3-2.2-.2 1.2-.4 2.4-.7 3.6-1.8 7.9-6.4 13.9-11.2 15.8z"/><path fill="#F1423D" d="M278.7-9.6c-.4-1-1-1.7-1.7-1.9-.8-.2-1.6.1-2.4.8-1.5-1.8-2-5.1-1.1-8.6.1-.5.3-1.1.5-1.6-.5.1-1.1.2-1.6.2-3.6.2-6.8-.9-8.3-2.7.9-.7 1.3-1.4 1.3-2.2 0-.8-.6-1.5-1.6-2.1 1.3-2 4.3-3.5 7.9-3.7h1.6c-.3-.5-.5-1-.7-1.5-1.3-3.4-1.3-6.7 0-8.7.9.6 1.8.8 2.5.5s1.2-1.1 1.5-2.1c2.2.6 4.6 3 5.9 6.4.2.5.4 1 .5 1.6.4-.4.8-.8 1.2-1.1 2.8-2.3 6-3.3 8.3-2.7-.3 1.1-.2 2 .3 2.6.5.6 1.4.8 2.5.8.1 2.3-1.4 5.3-4.2 7.6-.4.4-.9.7-1.3 1 .5.2 1 .5 1.4.8 3.1 1.9 5 4.7 5.1 7-1.1 0-1.9.4-2.4 1.1-.4.7-.4 1.6 0 2.6-2.2.8-5.5.3-8.6-1.7-.5-.3-.9-.6-1.3-1l-.3 1.6c-.8 3.4-2.8 6.1-5 7z"/><circle cx="279.9" cy="-26.5" r="3.4" fill="#58595B"/><path fill="#FFCCCA" d="M365.2 146.4c-1.6-.6-3-.6-4 .1s-1.5 2.1-1.4 3.8c-3.6 0-8.1-2.8-11.4-7.4-.5-.7-1-1.4-1.4-2.2-.4.7-.9 1.4-1.4 2.1-3.4 4.5-7.9 7.2-11.5 7.2.1-1.7-.4-3-1.4-3.8-1-.7-2.4-.8-4-.2-1.1-3.5.2-8.6 3.5-13.1.5-.7 1.1-1.4 1.6-2-.8-.2-1.6-.4-2.5-.7-5.3-1.8-9.3-5.3-10.4-8.7 1.6-.5 2.8-1.3 3.2-2.5.4-1.2 0-2.5-1-3.9 3-2.1 8.2-2.5 13.5-.7.8.3 1.6.6 2.4 1-.1-.8-.1-1.7-.1-2.6 0-5.6 2.1-10.5 5.1-12.6 1 1.4 2.1 2.2 3.3 2.2 1.2 0 2.4-.8 3.4-2.2 2.9 2.2 4.9 7 4.9 12.7 0 .9-.1 1.7-.2 2.6l2.4-.9c5.4-1.7 10.6-1.2 13.5.9-1 1.3-1.5 2.7-1.1 3.9.4 1.2 1.5 2 3.1 2.5-1.2 3.4-5.2 6.8-10.5 8.5-.8.3-1.7.5-2.5.6.6.6 1.1 1.3 1.6 2 3.3 4.9 4.4 10 3.3 13.4z"/><path fill="#F1423D" d="M354.7 136.3c-.7-.3-1.3-.3-1.8.1-.4.3-.7.9-.6 1.7-1.6 0-3.6-1.2-5.1-3.3-.2-.3-.4-.6-.6-1-.2.3-.4.6-.6 1-1.5 2-3.5 3.2-5.1 3.2 0-.8-.2-1.4-.6-1.7-.4-.3-1.1-.3-1.8-.1-.5-1.5.1-3.8 1.6-5.8.2-.3.5-.6.7-.9l-1.1-.3c-2.4-.8-4.1-2.3-4.6-3.9.7-.2 1.2-.6 1.4-1.1.2-.5 0-1.1-.5-1.7 1.3-.9 3.7-1.1 6-.3.4.1.7.3 1.1.4 0-.4-.1-.8-.1-1.1 0-2.5.9-4.7 2.3-5.6.4.6.9 1 1.5 1s1.1-.4 1.5-1c1.3 1 2.2 3.1 2.2 5.6 0 .4 0 .8-.1 1.1.3-.2.7-.3 1.1-.4 2.4-.8 4.7-.5 6 .4-.5.6-.7 1.2-.5 1.7.2.5.7.9 1.4 1.1-.5 1.5-2.3 3-4.7 3.8l-1.1.3c.2.3.5.6.7.9 1.4 2.1 1.9 4.4 1.4 5.9z"/><circle cx="346.2" cy="128.1" r="2.4" fill="#58595B"/><path fill="#FFCCCA" d="M248.5 165.9c-.6-.6-1.3-1-2-.8-.7.1-1.2.7-1.5 1.5-1.7-.8-3.3-3.2-3.8-6.2-.1-.5-.1-.9-.2-1.4-.4.3-.8.5-1.2.7-2.7 1.4-5.4 1.7-7.2.9.4-.8.5-1.6.2-2.1-.3-.6-1-.9-1.9-1 .3-1.9 2-4.1 4.7-5.6l1.2-.6c-.4-.3-.7-.6-1.1-.9-2.2-2.1-3.3-4.6-3.1-6.6.9.1 1.6 0 2.1-.5s.6-1.2.4-2.1c1.9-.3 4.5.6 6.7 2.7.3.3.7.7.9 1 .1-.4.3-.8.5-1.3 1.3-2.7 3.4-4.6 5.3-5 .1.9.5 1.6 1.1 1.8.6.3 1.3.2 2.1-.3.9 1.7.8 4.5-.5 7.2-.2.4-.4.8-.7 1.2.4 0 .9 0 1.4.1 3 .4 5.4 1.8 6.4 3.5-.8.4-1.3 1-1.4 1.6s.3 1.3.9 1.9c-1.3 1.4-4 2.1-7 1.8-.5-.1-.9-.1-1.3-.3l.3 1.3c.7 3.4.1 6.1-1.3 7.5z"/><path fill="#F1423D" d="M245.7 158.6c-.3-.3-.6-.4-.9-.4s-.5.3-.7.7c-.8-.4-1.5-1.4-1.7-2.7 0-.2-.1-.4-.1-.6-.2.1-.3.2-.5.3-1.2.6-2.4.8-3.2.4.2-.4.2-.7.1-1-.1-.3-.4-.4-.8-.4.1-.9.9-1.8 2.1-2.5l.6-.3c-.2-.1-.3-.3-.5-.4-1-.9-1.5-2.1-1.4-2.9.4.1.7 0 .9-.2.2-.2.2-.5.2-.9.8-.2 2 .3 3 1.2.2.1.3.3.4.4.1-.2.1-.4.2-.6.6-1.2 1.5-2 2.4-2.2.1.4.2.7.5.8.3.1.6.1.9-.1.4.8.4 2-.2 3.2-.1.2-.2.4-.3.5h.6c1.3.2 2.4.8 2.8 1.6-.4.2-.6.4-.6.7 0 .3.1.6.4.9-.6.6-1.8 1-3.1.8-.2 0-.4-.1-.6-.1.1.2.1.4.1.6.3 1.4 0 2.6-.6 3.2z"/><circle cx="243.5" cy="152.8" r="1.3" fill="#58595B"/><path fill="#FFCCCA" d="M452.6-77.5c-.9-.2-1.6-.1-2.1.3s-.7 1.2-.5 2.1c-1.9.2-4.5-1-6.5-3.2-.3-.3-.6-.7-.9-1.1l-.6 1.2c-1.5 2.6-3.8 4.3-5.7 4.5-.1-.9-.4-1.6-1-1.9-.6-.3-1.3-.3-2.1.1-.8-1.8-.4-4.6 1.1-7.2.2-.4.5-.8.8-1.1-.4 0-.9-.1-1.4-.2-3-.6-5.3-2.2-6.1-4 .8-.4 1.4-.9 1.5-1.5.1-.6-.2-1.3-.8-2 1.4-1.3 4.2-1.8 7.2-1.2.5.1.9.2 1.3.4-.1-.4-.2-.9-.2-1.4-.3-3 .5-5.7 1.9-7 .6.7 1.3 1.1 1.9 1 .7-.1 1.2-.6 1.7-1.4 1.7 1 3 3.4 3.3 6.4 0 .5.1.9.1 1.4l1.2-.6c2.8-1.2 5.6-1.3 7.3-.3-.5.8-.6 1.5-.4 2.1.3.6.9 1 1.8 1.2-.4 1.9-2.3 3.9-5.1 5.2-.4.2-.9.3-1.3.5.3.3.7.6 1 1 2.1 2.2 3 4.8 2.6 6.7z"/><path fill="#F1423D" d="M446.4-82.2c-.4-.1-.7-.1-.9.1-.2.2-.3.5-.2.9-.9.1-2-.4-2.9-1.4-.1-.2-.3-.3-.4-.5-.1.2-.2.4-.3.5-.7 1.2-1.7 1.9-2.5 2 0-.4-.2-.7-.4-.9s-.6-.1-1 .1c-.3-.8-.2-2 .5-3.2.1-.2.2-.4.3-.5-.2 0-.4 0-.6-.1-1.3-.3-2.3-1-2.7-1.8.4-.2.6-.4.7-.7.1-.3-.1-.6-.4-.9.6-.6 1.9-.8 3.2-.5.2 0 .4.1.6.2 0-.2-.1-.4-.1-.6-.1-1.3.2-2.5.9-3.1.3.3.6.5.9.4.3 0 .5-.3.7-.6.7.4 1.4 1.5 1.5 2.9v.6c.2-.1.4-.2.5-.3 1.2-.5 2.5-.6 3.2-.1-.2.3-.3.7-.2.9.1.3.4.4.8.5-.2.8-1 1.8-2.3 2.3-.2.1-.4.2-.6.2l.4.4c1 1.1 1.4 2.3 1.3 3.2z"/><circle cx="441.4" cy="-86.1" r="1.3" fill="#58595B"/><path fill="#FFCCCA" d="M277.9-129.4c2.2.2 4-.3 5.1-1.6 1-1.3 1.2-3.1.5-5.3 4.6-1.2 11.3.8 17.1 5.5 7.8 6.4 11 15.4 7.2 20.1-3.8 4.7-13.3 3.4-21.1-3-5.8-4.8-9-10.9-8.8-15.7z"/><g><path fill="#FFCCCA" d="M380.9 67.5c-1.3-1.3-2.7-2-4.1-1.7-1.3.2-2.4 1.4-3.2 3.1-3.6-1.7-6.7-6.5-7.9-12.6-.2-.9-.3-1.9-.4-2.8-.8.5-1.5 1-2.4 1.5-5.4 3-11.2 3.5-14.8 1.8.8-1.7 1-3.2.4-4.4-.6-1.2-2-1.9-3.9-2.1.5-3.9 4.1-8.4 9.6-11.4.8-.5 1.7-.9 2.5-1.2-.7-.6-1.5-1.2-2.1-1.8-4.5-4.3-6.8-9.5-6.3-13.5 1.8.3 3.4 0 4.3-1 .9-1 1.1-2.5.8-4.3 3.9-.7 9.3 1.3 13.8 5.6.7.7 1.3 1.3 1.9 2 .3-.9.6-1.7 1.1-2.6 2.7-5.6 7-9.4 10.9-10.2.3 1.8 1 3.2 2.3 3.8 1.2.6 2.8.3 4.4-.6 1.9 3.5 1.6 9.3-1 14.8-.4.9-.9 1.7-1.4 2.5.9 0 1.9.1 2.8.2 6.1.8 11.1 3.7 13 7.2-1.7.9-2.7 2-2.9 3.3-.2 1.3.5 2.7 1.9 4-2.7 2.9-8.3 4.4-14.4 3.6-1-.1-1.9-.3-2.8-.5.3.9.5 1.8.7 2.7 1.2 6.1-.1 11.7-2.8 14.6z"/><path fill="#F1423D" d="M375.1 52.5c-.6-.6-1.2-.9-1.8-.8-.6.1-1.1.6-1.4 1.4-1.6-.8-3-2.9-3.5-5.6-.1-.4-.1-.8-.2-1.2-.3.2-.7.5-1.1.7-2.4 1.3-5 1.6-6.6.8.4-.7.5-1.4.2-2-.3-.5-.9-.8-1.7-.9.2-1.8 1.8-3.8 4.3-5.1.4-.2.8-.4 1.1-.5-.3-.2-.6-.5-1-.8-2-1.9-3-4.2-2.8-6 .8.1 1.5 0 1.9-.4.4-.4.5-1.1.3-1.9 1.7-.3 4.1.6 6.1 2.5l.9.9c.1-.4.3-.8.5-1.2 1.2-2.5 3.1-4.2 4.8-4.5.1.8.5 1.4 1 1.7.5.3 1.2.1 1.9-.3.8 1.6.7 4.1-.5 6.6-.2.4-.4.8-.6 1.1.4 0 .8 0 1.3.1 2.7.4 4.9 1.7 5.8 3.2-.7.4-1.2.9-1.3 1.5-.1.6.2 1.2.9 1.8-1.2 1.3-3.7 2-6.4 1.6-.4-.1-.8-.1-1.2-.2l.3 1.2c.6 2.6.1 5.1-1.2 6.3z"/><circle cx="370.5" cy="40.5" r="2.6" fill="#58595B"/></g><g><path fill="#FFCCCA" d="M290.1 94.9c-1.4-1.1-2.8-1.7-4-1.3-1.3.3-2.2 1.5-2.8 3.2-3.6-1.3-7-5.7-8.6-11.4-.2-.9-.4-1.8-.6-2.6-.7.6-1.4 1.1-2.2 1.6-4.9 3.3-10.4 4.3-13.9 3 .7-1.7.7-3.1 0-4.2s-2.1-1.6-3.9-1.7c.2-3.8 3.2-8.4 8.2-11.7.8-.5 1.5-1 2.3-1.4-.7-.5-1.5-1-2.2-1.6-4.6-3.7-7.3-8.5-7.1-12.3 1.8.1 3.2-.3 4-1.3.8-1 .9-2.5.4-4.2 3.7-1 9 .5 13.6 4.2.7.6 1.4 1.2 2 1.8.2-.9.5-1.7.8-2.6 2.1-5.6 5.9-9.6 9.5-10.6.4 1.7 1.3 3 2.5 3.4 1.2.5 2.7.1 4.1-1 2.1 3.2 2.3 8.7.2 14.3-.3.9-.7 1.7-1.1 2.5.9-.1 1.8-.1 2.7 0 5.9.3 10.9 2.6 13 5.8-1.5 1-2.4 2.1-2.5 3.4-.1 1.3.8 2.5 2.2 3.6-2.4 3-7.6 4.9-13.5 4.6-.9 0-1.8-.1-2.7-.3.3.8.6 1.7.9 2.6 1.8 5.8 1.1 11.2-1.3 14.2z"/><path fill="#F1423D" d="M283.4 81.1c-.6-.5-1.2-.7-1.8-.6-.6.2-1 .7-1.2 1.4-1.6-.6-3.1-2.5-3.8-5.1l-.3-1.2c-.3.3-.6.5-1 .7-2.2 1.5-4.6 1.9-6.2 1.3.3-.7.3-1.4 0-1.9s-.9-.7-1.7-.7c.1-1.7 1.4-3.7 3.6-5.2.3-.2.7-.4 1-.6-.3-.2-.7-.4-1-.7-2.1-1.6-3.3-3.8-3.2-5.5.8.1 1.4-.1 1.8-.6.4-.5.4-1.1.2-1.9 1.6-.4 4 .2 6.1 1.9.3.3.6.5.9.8.1-.4.2-.8.4-1.1.9-2.5 2.6-4.3 4.2-4.7.2.8.6 1.3 1.1 1.5.5.2 1.2 0 1.8-.4.9 1.4 1 3.9.1 6.4-.1.4-.3.8-.5 1.1h1.2c2.6.1 4.9 1.2 5.8 2.6-.7.4-1.1.9-1.1 1.5s.3 1.1 1 1.6c-1.1 1.3-3.4 2.2-6 2.1-.4 0-.8-.1-1.2-.1.1.4.3.7.4 1.1.7 2.5.4 5-.6 6.3z"/><circle cx="277.9" cy="70" r="2.5" fill="#58595B"/></g><path fill="#F1423D" d="M5.6-59.4c1.6.3 2.9.1 3.7-.7s1.1-2.1.8-3.7c3.4-.5 8 1.5 11.7 5.3 5 5.2 6.6 11.8 3.5 14.9-3.1 3-9.7 1.3-14.8-3.9C6.8-51.4 5-56 5.6-59.4z" opacity=".5"/><path fill="#FFCCCA" d="M690.6 354c.4 1.8 1.3 3.1 2.5 3.5 1.2.5 2.7.1 4.2-.9 2.1 3.3 2.3 9 .1 14.6-3 7.7-9.1 12.4-13.7 10.6-4.6-1.8-6-9.4-3-17.1 2.2-5.6 6.2-9.7 9.9-10.7z"/><g><circle cx="295.7" cy="393.7" r="6.8" fill="#F8DDDE"/><circle cx="389.6" cy="423.2" r="11.8" fill="#F8DDDE"/><path fill="#FFCCCA" d="M155.9 346.4c1.3 2 1.8 4 1.1 5.6s-2.4 2.7-4.7 3.2c1.3 5 6.6 10.3 14 13.3 10.1 4.1 20.2 2.4 22.6-3.6 2.4-6.1-3.7-14.3-13.8-18.3-7.4-3-14.8-2.9-19.2-.2z"/><path fill="#F8DDDE" d="M306.3 455.9c1 4.7-2 9.4-6.7 10.4s-9.4-2-10.4-6.7 2-9.4 6.7-10.4 9.3 2 10.4 6.7zm-15.1 3.3c.8 3.6 4.3 5.8 7.8 5.1 3.6-.8 5.8-4.3 5.1-7.8-.8-3.6-4.3-5.8-7.8-5.1-3.6.7-5.8 4.2-5.1 7.8z"/><path fill="#4A4B4C" d="M413.6 328.1c2.4-5.5 4.9-11 7.4-16.6 2.5-5.6 5-11.1 7.5-16.7s5-11.1 7.4-16.6c2.4-5.5 4.9-10.9 7.3-16.2l6.9-15.3c2.2-4.9 4.3-9.5 6.4-13.9 2-4.4 3.9-8.5 5.7-12.2s3.3-7.2 4.8-10.4 2.7-5.9 3.8-8.1 1.9-4 2.6-5.3c-1.9.5-3.6.8-5.2 1.1a21.94 21.94 0 0 1-8.4 0c-1.6-.3-3.3-.6-5.2-1.1-2.8 9-5.9 18.2-9.1 27.4-3.2 9.2-6.7 18.6-10.3 28-3.6 9.4-7.3 18.6-11.1 27.4s-7.7 17.4-11.6 25.7c-4-9.4-7.8-18.7-11.6-27.8-3.8-9.1-7.4-18.1-11-27a859.7 859.7 0 0 1-19.5-53.7c-1.2.2-2.4.4-3.5.5s-2.2.3-3.2.5l-3.1.3c-1 .1-2.1.1-3.1.1s-2.1 0-3.1-.1l-3.1-.3c-1-.1-2.1-.3-3.3-.5s-2.3-.3-3.5-.5c.7 1.5 1.5 3.4 2.5 5.7 1 2.3 2.1 5 3.5 8.1 1.3 3.1 2.7 6.5 4.3 10.1s3.2 7.5 4.9 11.6c1.7 4.1 3.5 8.3 5.4 12.7 1.9 4.4 3.8 8.9 5.8 13.6 2 4.7 3.9 9.3 5.9 13.9 1.9 4.6 3.8 9.1 5.7 13.6l5.5 13.1c1.8 4.3 3.5 8.4 5.1 12.5 1.6 4.1 3.1 7.7 4.5 11 1.3 3.3 2.5 6.2 3.6 8.8-5.2 12.3-11.6 23.9-16.7 32.5-58.4 97-141.3 28.8-167.2 13.2-21.3-12.9-30.7 25-84 45 6 17.9 57.1-38.4 77.1-32.5 25.8 7.7 112.3 96.6 179.4-17.3"/><path fill="#FFCCCA" d="M271.5 378.8c-2.6.4-4.8 0-6.1-1.4-1.3-1.4-1.6-3.6-1.1-6.1-5.5-1-13.2 1.8-19.5 7.8-1 .9-1.9 1.9-2.7 2.9-.4-1.2-.9-2.5-1.5-3.7-3.7-7.9-9.8-13.4-15.3-14.4-.4 2.6-1.5 4.5-3.2 5.3-1.7.8-3.9.4-6.2-.9-2.7 4.9-2.3 13.1 1.4 21 .6 1.2 1.2 2.4 1.9 3.5-1.3 0-2.6.1-4 .3-8.7 1.1-15.7 5.2-18.5 10.1 2.3 1.2 3.8 2.8 4.1 4.7.2 1.9-.8 3.8-2.8 5.6 3.9 4.1 11.7 6.3 20.4 5.2 1.3-.2 2.6-.4 3.9-.7-.4 1.2-.7 2.5-1 3.8-1.6 8.6.1 16.6 3.9 20.7 1.9-1.8 3.9-2.8 5.8-2.4 1.9.4 3.4 1.9 4.5 4.4 5.1-2.4 9.6-9.2 11.2-17.8.3-1.3.4-2.7.5-3.9 1.1.7 2.2 1.5 3.4 2.1 7.7 4.2 15.8 5.1 20.9 2.7-1.2-2.4-1.4-4.5-.5-6.2.9-1.7 2.9-2.6 5.5-2.9-.7-5.6-5.8-12-13.4-16.2-1.2-.7-2.4-1.2-3.6-1.7 1-.8 2.1-1.6 3-2.5 6.4-6.3 9.7-13.8 9-19.3z"/><path fill="#F1423D" d="M252.4 391c-1.2.2-2.1 0-2.7-.6-.6-.6-.7-1.6-.5-2.7-2.5-.5-5.9.8-8.7 3.5-.4.4-.8.8-1.2 1.3-.2-.5-.4-1.1-.7-1.6-1.7-3.5-4.4-6-6.8-6.4-.2 1.2-.7 2-1.4 2.4-.8.4-1.7.2-2.8-.4-1.2 2.2-1 5.8.6 9.4.3.5.5 1.1.8 1.6-.6 0-1.2 0-1.8.1-3.9.5-7 2.3-8.2 4.5 1 .5 1.7 1.3 1.8 2.1.1.8-.4 1.7-1.2 2.5 1.7 1.8 5.2 2.8 9.1 2.3.6-.1 1.2-.2 1.7-.3-.2.6-.3 1.1-.4 1.7-.7 3.8 0 7.4 1.7 9.2.8-.8 1.7-1.2 2.6-1.1.8.2 1.5.9 2 1.9 2.3-1.1 4.3-4.1 5-7.9.1-.6.2-1.2.2-1.8.5.3 1 .7 1.5.9 3.4 1.9 7 2.3 9.3 1.2-.5-1.1-.6-2-.2-2.8s1.3-1.2 2.5-1.3c-.3-2.5-2.6-5.3-6-7.2-.5-.3-1.1-.5-1.6-.8.5-.3.9-.7 1.4-1.1 2.8-2.8 4.3-6.1 4-8.6z"/><circle cx="237" cy="400.9" r="3.7" fill="#58595B"/><path fill="#FFCCCA" d="M167 427.5c-1.4-1.2-2.1-2.5-1.9-3.9.2-1.3 1.2-2.4 2.8-3.3-1.9-3.4-6.8-6.2-12.9-6.9-.9-.1-1.9-.2-2.8-.2.5-.8.9-1.6 1.3-2.4 2.5-5.5 2.7-11.2.8-14.6-1.6.9-3.1 1.2-4.3.7s-2-1.9-2.3-3.7c-3.8.8-8 4.6-10.5 10.1-.4.9-.7 1.7-1 2.6-.6-.7-1.2-1.3-1.9-2-4.5-4.1-9.8-6-13.6-5.3.4 1.8.2 3.3-.7 4.3-.9 1-2.4 1.3-4.2 1-.4 3.9 1.9 9 6.4 13.1.7.6 1.4 1.2 2.1 1.7-.8.3-1.7.7-2.5 1.2-5.3 3-8.8 7.4-9.2 11.3 1.8.2 3.2.8 3.8 2 .7 1.2.5 2.7-.3 4.3 3.5 1.6 9.2 1 14.5-2 .8-.5 1.6-1 2.3-1.5.1.9.2 1.8.4 2.7 1.2 6 4.4 10.6 7.9 12.3.7-1.7 1.8-2.8 3.1-3 1.3-.3 2.7.4 4 1.6 2.6-2.9 3.8-8.4 2.6-14.4-.2-.9-.4-1.8-.7-2.7.9.2 1.8.4 2.7.5 6 .9 11.4-.6 14.1-3.5z"/><path fill="#F1423D" d="M151.9 422.8c-.6-.5-.9-1.1-.9-1.7.1-.6.5-1.1 1.2-1.5-.9-1.5-3-2.8-5.7-3.1-.4 0-.8-.1-1.2-.1.2-.3.4-.7.6-1.1 1.1-2.5 1.2-5 .4-6.5-.7.4-1.4.5-1.9.3s-.9-.8-1-1.6c-1.7.3-3.6 2-4.7 4.5-.2.4-.3.8-.4 1.1-.3-.3-.5-.6-.9-.9-2-1.8-4.4-2.7-6.1-2.4.2.8.1 1.5-.3 1.9-.4.4-1.1.6-1.9.5-.2 1.7.8 4 2.8 5.9.3.3.6.5.9.8-.4.2-.7.3-1.1.5-2.4 1.3-3.9 3.3-4.1 5 .8.1 1.4.4 1.7.9.3.5.2 1.2-.1 1.9 1.6.7 4.1.4 6.4-.9.4-.2.7-.4 1-.7 0 .4.1.8.2 1.2.5 2.7 1.9 4.7 3.5 5.5.3-.7.8-1.2 1.4-1.4.6-.1 1.2.2 1.8.7 1.2-1.3 1.7-3.8 1.1-6.4l-.3-1.2c.4.1.8.2 1.2.2 2.8.6 5.3-.1 6.4-1.4z"/><circle cx="139.8" cy="419.1" r="2.5" fill="#58595B"/><path fill="#FFCCCA" d="M432.1 377.7c-.9-.3-1.6-.8-1.8-1.4-.2-.7 0-1.5.6-2.2-1.7-1.2-4.7-1.5-7.8-.4-.5.2-.9.3-1.4.5.1-.5.1-1 .1-1.5 0-3.2-1.2-6-2.9-7.3-.6.8-1.2 1.3-1.9 1.3s-1.4-.5-1.9-1.3c-1.7 1.2-2.8 4-2.8 7.3 0 .5 0 1 .1 1.5-.4-.2-.9-.4-1.4-.5-3.1-1-6.1-.7-7.8.5.6.8.8 1.6.6 2.2-.2.7-.9 1.2-1.8 1.5.7 2 3 3.9 6.1 4.9.5.2 1 .3 1.4.4-.3.4-.6.7-.9 1.1-1.9 2.6-2.6 5.6-1.9 7.6.9-.3 1.7-.3 2.3.1.6.4.8 1.2.8 2.2 2.1 0 4.7-1.6 6.6-4.2.3-.4.6-.8.8-1.2.2.4.5.8.8 1.2 1.9 2.6 4.5 4.2 6.6 4.2 0-1 .2-1.8.8-2.2.6-.4 1.4-.4 2.3-.1.6-2-.1-4.9-2-7.6-.3-.4-.6-.8-.9-1.1.5-.1.9-.2 1.4-.4 3-1.2 5.3-3.1 5.9-5.1z"/><path fill="#F1423D" d="M423.8 378.8c-.4-.1-.7-.3-.8-.6-.1-.3 0-.6.3-1-.8-.5-2.1-.6-3.5-.2-.2.1-.4.2-.6.2v-.7c0-1.4-.5-2.7-1.3-3.2-.2.4-.5.6-.9.6-.3 0-.6-.2-.9-.6-.7.6-1.3 1.8-1.3 3.2v.7c-.2-.1-.4-.2-.6-.2-1.4-.4-2.7-.3-3.5.2.3.3.4.7.3 1-.1.3-.4.5-.8.6.3.9 1.3 1.8 2.7 2.2.2.1.4.1.6.2-.1.2-.3.3-.4.5-.8 1.2-1.1 2.5-.9 3.4.4-.1.8-.1 1 0s.4.5.4 1c.9 0 2.1-.7 2.9-1.9.1-.2.2-.4.4-.6.1.2.2.4.4.6.9 1.2 2 1.9 2.9 1.9 0-.4.1-.8.4-1 .3-.2.6-.2 1 0 .3-.9 0-2.2-.9-3.4-.1-.2-.3-.3-.4-.5.2 0 .4-.1.6-.2 1.6-.4 2.6-1.3 2.9-2.2z"/><circle cx="417.1" cy="379.7" r="1.4" fill="#58595B"/><path fill="#FFCCCA" d="M369.5 408.9c-1.7-.7-2.8-1.6-3.1-2.9-.3-1.3.3-2.6 1.5-4-2.9-2.5-8.4-3.4-14.2-2-.9.2-1.8.5-2.6.8.2-.9.3-1.8.4-2.7.5-5.9-1.2-11.2-4.1-13.7-1.1 1.4-2.4 2.1-3.7 2-1.3-.1-2.4-1.1-3.3-2.6-3.3 2-5.8 6.9-6.3 12.8-.1.9-.1 1.8-.1 2.7l-2.4-1.2c-5.5-2.3-11-2.3-14.3-.3 1 1.5 1.3 3 .8 4.2-.5 1.2-1.8 2-3.5 2.4.9 3.7 4.8 7.7 10.3 10 .9.4 1.7.7 2.5.9-.6.6-1.3 1.2-1.9 1.9-3.9 4.5-5.6 9.8-4.7 13.5 1.7-.5 3.2-.3 4.2.5 1 .9 1.3 2.3 1.2 4.1 3.8.3 8.8-2.2 12.6-6.7.6-.7 1.1-1.4 1.6-2.1.4.8.8 1.6 1.3 2.4 3.1 5.1 7.6 8.3 11.4 8.7.1-1.8.7-3.2 1.8-3.8 1.1-.7 2.6-.6 4.2.2 1.5-3.5.6-9-2.4-14.1-.5-.8-1-1.5-1.5-2.2.9-.1 1.8-.3 2.7-.5 5.6-1.5 10.1-4.8 11.6-8.3z"/><path fill="#F1423D" d="M354.1 409.6c-.7-.3-1.2-.7-1.4-1.3s.1-1.2.7-1.8c-1.3-1.1-3.7-1.5-6.3-.9l-1.2.3c.1-.4.1-.8.2-1.2.2-2.6-.5-5-1.8-6.1-.5.6-1.1 1-1.7.9-.6 0-1.1-.5-1.5-1.2-1.5.9-2.6 3.1-2.8 5.7v1.2c-.3-.2-.7-.4-1.1-.5-2.4-1-4.9-1-6.4-.1.4.7.6 1.3.4 1.9-.2.5-.8.9-1.6 1.1.4 1.7 2.1 3.4 4.6 4.4.4.2.8.3 1.1.4-.3.3-.6.6-.8.9-1.7 2-2.5 4.4-2.1 6 .8-.2 1.4-.1 1.9.2.4.4.6 1 .5 1.8 1.7.1 3.9-1 5.6-3 .3-.3.5-.6.7-1 .2.4.4.7.6 1.1 1.4 2.3 3.4 3.7 5.1 3.9 0-.8.3-1.4.8-1.7.5-.3 1.2-.3 1.9.1.7-1.6.3-4-1.1-6.3-.2-.4-.4-.7-.7-1 .4 0 .8-.1 1.2-.2 2.5-.6 4.5-2 5.2-3.6z"/><circle cx="341.7" cy="410.2" r="2.5" fill="#58595B"/><g><path fill="#FFCCCA" d="M460.3 8c-1.3-.4-2.3-1.1-2.6-2-.3-1 0-2.1.9-3.2-2.4-1.7-6.7-2.1-11.1-.6-.7.2-1.3.5-2 .8.1-.7.1-1.4.1-2.1 0-4.6-1.7-8.6-4.1-10.4-.8 1.2-1.7 1.8-2.7 1.8-1 0-2-.7-2.8-1.8-2.4 1.8-4 5.8-4 10.4 0 .7.1 1.4.1 2.1-.6-.3-1.3-.5-2-.8-4.4-1.4-8.7-1-11.1.7.9 1.1 1.2 2.2.9 3.2-.3 1-1.2 1.7-2.6 2.1.9 2.8 4.2 5.6 8.7 7 .7.2 1.4.4 2 .5-.5.5-.9 1.1-1.3 1.6-2.7 3.8-3.7 8-2.7 10.8 1.3-.5 2.5-.5 3.3.1.8.6 1.2 1.7 1.2 3.1 3 0 6.7-2.3 9.4-6.1.4-.6.8-1.2 1.1-1.8.3.6.7 1.2 1.1 1.8 2.7 3.7 6.5 6 9.4 6 0-1.4.3-2.5 1.1-3.1.8-.6 2-.6 3.3-.2.9-2.8-.1-7-2.9-10.8-.4-.6-.9-1.1-1.3-1.6.7-.1 1.4-.3 2-.5 4.4-1.3 7.7-4.1 8.6-7z"/><path fill="#F1423D" d="M448.4 9.7c-.6-.2-1-.5-1.2-.9-.1-.4 0-.9.4-1.4-1.1-.8-3-.9-5-.3l-.9.3c0-.3.1-.6 0-.9 0-2.1-.8-3.8-1.8-4.6-.4.5-.8.8-1.2.8-.5 0-.9-.3-1.2-.8-1.1.8-1.8 2.6-1.8 4.6 0 .3 0 .6.1.9l-.9-.3c-2-.6-3.9-.5-5 .3.4.5.5 1 .4 1.4-.1.4-.6.7-1.1.9.4 1.3 1.9 2.5 3.9 3.1.3.1.6.2.9.2-.2.2-.4.5-.6.7-1.2 1.7-1.6 3.6-1.2 4.8.6-.2 1.1-.2 1.5.1.4.3.5.8.5 1.4 1.3 0 3-1 4.2-2.7.2-.3.4-.5.5-.8.2.3.3.5.5.8 1.2 1.7 2.9 2.7 4.2 2.7 0-.6.1-1.1.5-1.4.4-.3.9-.3 1.5-.1.4-1.3-.1-3.1-1.3-4.8-.2-.3-.4-.5-.6-.7.3-.1.6-.1.9-.2 1.9-.6 3.4-1.9 3.8-3.1z"/><circle cx="438.8" cy="11" r="1.9" fill="#58595B"/></g><g opacity=".8"><path fill="#FFCCCA" d="M639.1 182c-.9-.3-1.6-.8-1.8-1.4-.2-.7 0-1.5.6-2.2-1.7-1.2-4.7-1.5-7.8-.4-.5.2-.9.3-1.4.5.1-.5.1-1 .1-1.5 0-3.2-1.2-6-2.9-7.3-.6.8-1.2 1.3-1.9 1.3s-1.4-.5-1.9-1.3c-1.7 1.2-2.8 4-2.8 7.3 0 .5 0 1 .1 1.5-.4-.2-.9-.4-1.4-.5-3.1-1-6.1-.7-7.8.5.6.8.8 1.6.6 2.2-.2.7-.9 1.2-1.8 1.5.7 2 3 3.9 6.1 4.9.5.2 1 .3 1.4.4-.3.4-.6.7-.9 1.1-1.9 2.6-2.6 5.6-1.9 7.6.9-.3 1.7-.3 2.3.1.6.4.8 1.2.8 2.2 2.1 0 4.7-1.6 6.6-4.2.3-.4.6-.8.8-1.2.2.4.5.8.8 1.2 1.9 2.6 4.5 4.2 6.6 4.2 0-1 .2-1.8.8-2.2.6-.4 1.4-.4 2.3-.1.6-2-.1-4.9-2-7.6-.3-.4-.6-.8-.9-1.1.5-.1.9-.2 1.4-.4 2.9-1.1 5.2-3.1 5.9-5.1z"/><path fill="#F1423D" d="M630.7 183.1c-.4-.1-.7-.3-.8-.6-.1-.3 0-.6.3-1-.8-.5-2.1-.6-3.5-.2-.2.1-.4.2-.6.2v-.7c0-1.4-.5-2.7-1.3-3.2-.2.4-.5.6-.9.6-.3 0-.6-.2-.9-.6-.7.6-1.3 1.8-1.3 3.2v.7c-.2-.1-.4-.2-.6-.2-1.4-.4-2.7-.3-3.5.2.3.3.4.7.3 1-.1.3-.4.5-.8.6.3.9 1.3 1.8 2.7 2.2.2.1.4.1.6.2-.1.2-.3.3-.4.5-.8 1.2-1.1 2.5-.9 3.4.4-.1.8-.1 1 0 .3.2.4.5.4 1 .9 0 2.1-.7 2.9-1.9.1-.2.2-.4.4-.6.1.2.2.4.4.6.9 1.2 2 1.9 2.9 1.9 0-.4.1-.8.4-1s.6-.2 1 0c.3-.9 0-2.2-.9-3.4-.1-.2-.3-.3-.4-.5.2 0 .4-.1.6-.2 1.6-.4 2.6-1.3 2.9-2.2z"/><circle cx="624" cy="184.1" r="1.4" fill="#58595B"/></g><g><path fill="#F8DDDE" d="M79.3 180.9c1 4.7-2 9.4-6.7 10.4s-9.4-2-10.4-6.7 2-9.4 6.7-10.4 9.3 2 10.4 6.7zm-15.1 3.3c.8 3.6 4.3 5.8 7.8 5.1 3.6-.8 5.8-4.3 5.1-7.8-.8-3.6-4.3-5.8-7.8-5.1-3.6.7-5.8 4.2-5.1 7.8z"/></g><g><circle cx="-22.3" cy="272.7" r="6.8" fill="#F8DDDE"/></g><g><path fill="#F8DDDE" d="M763-105.2c1 4.7-2 9.4-6.7 10.4s-9.4-2-10.4-6.7 2-9.4 6.7-10.4 9.4 2 10.4 6.7zm-15 3.3c.8 3.6 4.3 5.8 7.8 5.1s5.8-4.3 5.1-7.8c-.8-3.6-4.3-5.8-7.8-5.1s-5.8 4.2-5.1 7.8z"/></g><g opacity=".5"><path fill="#F8DDDE" d="M-143 132.1c1 4.7-2 9.4-6.7 10.4s-9.4-2-10.4-6.7 2-9.4 6.7-10.4c4.7-1.1 9.4 1.9 10.4 6.7zm-15 3.2c.8 3.6 4.3 5.8 7.8 5.1 3.6-.8 5.8-4.3 5.1-7.8-.8-3.6-4.3-5.8-7.8-5.1-3.6.7-5.9 4.2-5.1 7.8z"/></g></g><g fill="#4A4B4C"><path d="M152 518.8c-.1 0-.2 0-.2.1-.9 1.3-1.9 2.6-3.1 3.8 2.1 3.5 2.7 7.9 2.7 11.4 0 4.6-.7 7.2-1.1 8.2-.5 1-1.5 2-3.5 2.2 0-.3-.2-.7-.4-1.1-.3-.4-1.1-.8-2.2-1.2-.2-.1-.3-.2-.3-.3 0-.2.1-.3.3-.3h.1c1.3.3 2.2.5 2.8.5 1.8 0 2.1-1.8 2.4-3.3.2-1.2.4-3.2.4-5.7 0-.8-.1-1.7-.1-2.3-2.3 4.4-6.8 7.7-7.1 7.7-.1 0-.2-.1-.2-.2s0-.2.1-.2c4.8-4.3 6.8-10 6.8-10.3 0-.3-.7-2.7-1.5-4-2.6 2.6-4.9 3.6-5 3.6-.1 0-.2-.2-.2-.3 0-.1.1-.2.2-.2a32 32 0 0 0 4.7-4.3c-.4-.7-1.1-1.9-3.4-4.2-.1-.1-.1-.2-.1-.3 0-.1.1-.3.2-.3s2.2 1.6 4 4c1.5-1.9 2.2-2.8 2.8-4.5.7.4 1.2.7 1.5.9.3.1.4.3.4.5 0 .1-.1.4-.4.4l-.6-.3zm6.1 4.1v4.3c0 .2-.1.4-.4.4-.2.1-.5.1-.8.1-.2 0-.4-.2-.4-.5v-4.3h-4.2c-.1-.3-.2-.6-.2-.9h4.4v-5.1c2 .3 2.3.3 2.3.7 0 .5-.4.6-.4.6-.2 0-.4.1-.4.2v3.6h5.7v-5.1c2.2.2 2.3.3 2.3.7 0 .5-.4.6-.4.6-.2 0-.4.1-.4.2v3.6h1.4l1.6-1.6c.5.5 1 1 1.6 1.4.2.1.2.3.2.5 0 .3-.2.6-.6.6h-4.2v4.3c0 .4-.8.6-1.1.6-.2 0-.4-.2-.4-.5V523h-5.6zm-4.3 5.3l1 .7h12c.2-.3.5-.7.8-1l1.4.9c.1.1.1.1.1.3 0 .3-.2.5-.4.6-.2.1-.3.2-.3.3v13.7c0 .4-.7.6-1.1.6-.3 0-.4-.2-.4-.5v-1.3h-11.5v1.4c0 .4-.8.6-1.1.6-.3 0-.4-.2-.4-.7v-15.6zm6.5 1.6h-5.1v5.4h5.1v-5.4zm-5 11.8h5.1v-5.4h-5.1v5.4zm6.5-6.4h4.9v-5.4h-4.9v5.4zm0 6.4h4.9v-5.4h-4.9v5.4zM185.8 541.5c8.4-1 11.5-5.4 11.5-10.2 0-5.4-2.6-10.1-9.5-10.1-.5 0-1.8.1-2.5.3.6.5.9 1.7.9 2.9 0 5.5-4 14.8-8.4 14.8-2 0-3.5-2.5-3.5-6.1 0-7 5.8-12.7 13.6-12.7 7.4 0 11.3 4.6 11.3 11.1 0 5.5-3.7 10-13.2 10.8l-.2-.8zm-1.3-19.9c-4.6 1-8.5 5.4-8.5 11.3 0 2.4.8 4.4 2 4.4 3.6 0 7-8.8 7-13.7 0-.8-.2-1.7-.5-2zM205.3 521l-.1 1.2c-.1.9-.4 1.6-.8 2.1-.2.2-.5.3-.8.3-.5 0-.6-.1-.8-.8 0-.2.2-.5.6-.8.8-.8 1.4-1.8 1.4-3.5 0-.2.1-.3.2-.3.2 0 .2.1.3.9h4.4v-3.5l1.6.3c.5.1.7.2.7.5s-.1.4-.4.5c-.2.1-.4.3-.4.4v1.8h4.1l.9-1 1.1 1.3c.2.2.4.4.4.7 0 .5-.4.5-.8.5-.3 0-.5.1-.6.2l-1.6 1.9c-.1.1-.1.1-.2.1-.2 0-.3-.1-.3-.3v-.1c.4-.8.7-1.6.9-2.3h-9.8zm.4 13.5c-1.7 1-2.5 1.4-2.6 1.4-.1 0-.3-.1-.3-.3 0-.1 0-.2.1-.2 3-1.6 5-3.2 7-5.5-1.1-.7-2.4-1.3-3.7-1.8-1 1.3-2.5 2.7-2.9 2.7-.1 0-.2-.1-.2-.2s0-.1.1-.2c1.1-1 2-2.2 2.8-3.7 1.1-1.9 1.5-2.9 1.7-4.7l1.6.4c.4.1.5.2.5.5 0 .2-.1.4-.4.4-.2 0-.4.1-.4.2l-.5 1h4.5l.9-.5.9 1c.1.1.2.3.2.5 0 .3-.2.5-.5.5-.2 0-.4.1-.5.3l-2.4 3.3c1.3.7 4.4 2.3 4.4 3.8 0 .6-.5.8-.7.8-.1 0-.1 0-.5-.3-1.2-1.3-2.5-2.5-3.9-3.4-.3.5-1.7 1.7-3.6 3l-.9.6.7.4h5.5l.8-.8 1.4.9c.1.1.2.2.2.3 0 .1-.1.4-.5.5-.2.1-.4.2-.4.3v7.5c0 .2-.1.4-.3.5-.9.2-1.2.3-1.2-.5V542h-5.3v1.7c0 .2-.1.3-.4.4-1 .2-1.1.3-1.1-.5v-9.1zm2.3-8.9l-1.3 2-.1.1c1.4.4 2.7.9 3.9 1.5.9-1.1 1.7-2.3 2.3-3.6H208zm-.8 15.5h5.3v-5.5h-5.3v5.5zm15.1-.8c.3.2.4.4.4.5 0 .1-.1.4-.4.4-.1 0-.3-.1-.4-.1-.1 0-.2 0-.3.1-1.9 2.1-6 3.2-6.6 3.2-.2 0-.3-.2-.3-.3 0-.1.1-.2.2-.3 1.2-.4 2.3-.9 3.3-1.6 1.2-.7 2.2-1.6 2.7-2.7l1.4.8zm-4.4-18.2l1.5 1.3h2.1l.5-1.9.3-2h-4.9l-.2-.9h10l1.7-1.4 1.6 1.2c.1.1.2.2.2.4 0 .6-.4.7-.7.7h-6l-.7 2-1 1.9h5.2l.7-1 1.4.9c.1.1.1.2.1.3 0 .4-.3.6-.4.6-.2.1-.3.2-.3.3v14.4c0 .2-.2.3-.3.4-1 .2-1.2.3-1.2-.4v-.9h-8v1.3c0 .4-.3.5-1.2.7-.2 0-.3-.2-.3-.7v-17.2zm1.5 2.2v3.5h8v-3.5h-8zm0 4.5v3.7h8v-3.7h-8zm0 4.5v3.8h8v-3.8h-8zm10.7 10.4c0 .5-.5.6-.9.6-.2-.1-.4-.2-.5-.4-1.7-2.6-3.3-3.5-4-3.6-.1 0-.2-.1-.2-.2 0-.2.1-.3.3-.3.8 0 4.1 1.5 5 3.1l.3.8zM246.9 543.7c0 .5-1.1.6-1.1.6-.2 0-.3-.2-.3-.6v-22.9c-2.3.3-4.3.5-6 .5 0 11.3-.8 17.5-5.9 23.1-.1.1-.2.1-.3.1-.2 0-.2-.1-.2-.2s.1-.2.1-.3c2.7-3.6 4.8-8.2 4.8-21.8v-2.4l1.4.8c3.9-.3 11.6-1.1 15.7-3.4l1.6.8c.2.1.3.2.3.4 0 .1-.1.4-.5.4h-.8l-2.2.6c.1 6 .7 12 2.2 16.3.9 2.5 2.4 5.2 4.9 6.8.1.1.1.2.1.2s0 .2-.3.2h-.5c-.3 0-.6.2-.8.5-.2.2-.3.4-.4.4-.2 0-1.7-2.3-2.5-3.9-2-4.3-3.2-9.2-3.4-20.2-1.7.5-3.6.8-5.6 1.1h-.1v22.9zM275.8 541.5c8.4-1 11.5-5.4 11.5-10.2 0-5.4-2.6-10.1-9.5-10.1-.5 0-1.8.1-2.5.3.6.5.9 1.7.9 2.9 0 5.5-4 14.8-8.4 14.8-2 0-3.5-2.5-3.5-6.1 0-7 5.8-12.7 13.6-12.7 7.4 0 11.3 4.6 11.3 11.1 0 5.5-3.7 10-13.2 10.8l-.2-.8zm-1.3-19.9c-4.6 1-8.5 5.4-8.5 11.3 0 2.4.8 4.4 2 4.4 3.6 0 7-8.8 7-13.7 0-.8-.2-1.7-.5-2zM296.6 526.8H293l-.2-.9h3.8v-8.2l1.5.3c.5.1.7.2.7.5 0 .2-.1.4-.4.5-.2.1-.4.3-.4.5v6.5h1.1l1.6-1.6 1.6 1.4c.1.1.2.3.2.5 0 .3-.2.6-.6.6H298v9.4c1.2-.5 2.4-1.2 3.5-1.9.1-.1.1-.1.2-.1.2 0 .3.2.3.3 0 .3-3.1 3-7.3 4.7-.1.1-.2.3-.2.5 0 .5-.4.7-.5.7-.2 0-.4-.2-.6-.6l-.9-1.8 1.5-.3 2.4-.8v-10.2zm20-.6l1.8-1.6 1.8 1.4c.2.2.3.4.3.6 0 .4-.4.5-.6.5h-14.7c-.2 5.7-1.2 9.8-3.1 12.5-1.3 2-3 3.6-3.3 3.6-.2 0-.2-.2-.2-.3 0-.1 0-.1.1-.2 2.6-2.8 5.1-6.4 5.1-17.6v-5.9l1.4 1.1c3.2-.4 8.8-1.2 11.9-3.1l1.6.8c.2.1.4.2.4.4 0 .1-.2.4-.6.4h-.8c-2 .7-4.2 1.3-6.8 1.7-2.2.3-4.1.5-5.7.6v5.1h11.4zm-10.4 5.7l1.3.9h9.1l.8-.8 1.4.9c.1.1.2.2.2.3 0 .2-.2.4-.5.5-.2.1-.4.2-.4.4v10.3c0 .2-.1.3-.3.4-1 .2-1.2.3-1.2-.4v-1.8h-8.9v1.6c0 .1-.1.3-.4.4-1 .2-1.1.3-1.1-.5v-12.2zm1.5 1.8v8h8.9v-8h-8.9zM344.7 526.1c.2-.4 1-.6 1.5-.6 1.6 0 3.1 1.5 3.1 2.2 0 .6-.4 1-1.8 1.3-1.4.3-5.1 1.8-7.9 3.2v.8c0 3.8-.4 5.2-1.3 5.2-.5 0-.8-.5-.8-1.3v-.6c.2-1.5.4-2.4.4-3.4-2.7 1.4-5.5 3.3-5.5 6 0 2 2 2.7 5.5 2.7 3.2 0 5.6-.2 6.1-.7 1.9.1 2.9.5 2.9 1s-.2.8-1.1.9c-1.5.3-4.7.4-6.4.4-7 0-8.4-1.8-8.4-4.2 0-2.9 3.5-5.5 6.7-7.2 0-2.4-.7-3.8-2.5-3.8-2.9 0-6.3 3.7-8.9 7.4-.7 1-1 1.5-1.5 1.5-.4 0-.8-.5-.8-1.1 0-.8.5-1.1 1.5-2 2.5-2.3 5.3-6.8 6.4-9.8-.9.1-2 .1-2.6.1-1.5 0-2.4-.3-2.9-.8-.5-.4-1-1-1.3-1.8l.4-.3c.9 1.3 2 1.8 4.1 1.8.7 0 2-.1 2.8-.2.5-1.4.7-2.3.7-3.1 0-.8-.9-1-1.6-1-.2 0-.4 0-.6.1h-.1c.2-.6.7-1.1 1.7-1.1 1.6 0 2.9.8 2.9 1.5 0 .6-.4.7-.7 1.4-.2.7-.5 1.4-.8 2.1 1.8-.2 4.2-.8 5.4-1.2.7-.2 1.3-.6 1.6-1.2 1.8 0 2.9.2 2.9 1 0 .5-.8.7-1.5.9-2.1.7-6.3 1.5-8.8 1.8-.9 2.3-2.1 4.4-3.2 5.8l.2.1c2.1-2 3.9-2.6 5.1-2.6 1.7 0 3.3.8 3.8 3.9 3.3-1.6 7.1-3.1 7.1-3.8 0-.5-.5-.8-1.2-.8h-.5l-.1-.5zM353.5 521.6l-.2-.9h16.1c.5-1.2 1-2.5 1.2-3.8l1.6.4c.4.1.5.2.5.4s-.2.5-.5.5c-.2 0-.4.1-.5.2l-1.6 2.3h6.1l1.9-1.6 1.9 1.4c.2.1.2.2.2.5 0 .4-.3.6-.7.6h-26zm4.4 16.9c.1 0 .1.1.1.3 0 1.2-1.5 5.8-3.4 5.8-.6 0-.8-.5-.8-.7 0-.3.1-.5.7-.9 1-.6 1.7-1.3 2.2-2 .4-.7.8-1.4.9-2.2 0-.3.1-.3.3-.3zm-2.1-15.4l1.3.9h6.8l.7-.9 1.3 1c.2.1.3.3.3.5s-.2.4-.4.5c-.2.1-.3.2-.3.4V536c0 1.1-1.1 1.6-2.2 1.7 0-1.1-1.1-1.6-1.9-1.9-.2-.1-.3-.2-.3-.3 0-.1.1-.3.4-.3h.1c1 .3 1.7.5 2.1.5.4 0 .4-.4.4-.6v-2.7h-6.6v4.9c0 .1-.1.3-.4.4-1 .2-1.1.3-1.1-.5v-14.1zm1.5 1.8v2.8h6.6v-2.8h-6.6zm0 3.7v2.8h6.6v-2.8h-6.6zm5.8-8.2c-.6 0-.8 0-1-.5-.2-.5-.6-1.9-1.7-2.6-.1 0-.2-.1-.2-.2s0-.3.2-.3c.5 0 3 1.5 3 2.7.1.5-.1.9-.3.9zm-.9 18.7c-.1-.1-.1-.1-.1-.2s.1-.2.3-.2c.5 0 1.9 2.7 1.9 4.3 0 1-.6 1.2-.8 1.2-.6 0-.7-.7-.7-.9.1-.5.1-.9.1-1.3-.1-1.6-.6-2.6-.7-2.9zm8 4.8l-.2-.5c0-1.9-.5-3.5-1.1-4.2-.1-.1-.1-.1-.1-.2s.1-.2.3-.2c.5 0 2.5 2.9 2.5 4.4l-.2.7c-.2.2-.4.3-.6.3l-.6-.3zm-1-19.7l1.6.2c.5.1.7.2.7.4s-.2.5-.5.6-.5.3-.5.5v8.1c0 .5-1 .7-1.2.7s-.3-.1-.3-.3v-10.2zm6.4-.9l1.7.3c.5.1.7.3.7.5 0 .3-.2.5-.5.5-.3.1-.4.2-.4.5v10.6c0 1.3-1.5 1.7-2.4 1.8l-.4-.8c-.2-.3-.8-.7-1.6-1-.3-.1-.5-.2-.5-.4 0-.3.3-.4.6-.3l2.5.5c.2 0 .3-.1.4-.3v-11.9zm-.9 15.3c0-.1.1-.3.3-.3.8 0 4.5 3.6 4.5 5.3 0 .6-.3.9-.7.9-.4 0-.7-.1-.7-.5-.7-2.3-2.1-4.5-3.2-5.2-.2 0-.2-.1-.2-.2zM387.9 519.6c.3-.7 1.1-1.1 1.8-1.1 1.5 0 3.2.8 3.2 1.9 0 .7-.6.8-1 2.7-.4 2.4-.9 8.5-.9 12.3 0 4.7 2.2 5.7 5.9 5.7 4.5 0 8.3-2.3 11-7.4l.7.3c-2.5 6.1-6.8 8.7-11.8 8.7-3.9 0-7.3-1.6-7.3-7.2 0-4.1.5-10.5.8-14.6v-.2c0-1.2-1.1-1.2-1.6-1.2-.3.1-.5.1-.8.1zm11.3 2.4c3.8 1.4 4.5 3 4.5 3.8 0 .5-.3.9-.7.9-.4 0-.8-.3-1-.8-.4-.9-1.7-2.4-3.2-3.3l.4-.6zm3.4-2.2c3.7 1.4 4.5 3 4.5 3.8 0 .5-.3.9-.7.9-.5 0-.8-.3-1-.8-.4-.9-1.7-2.4-3.2-3.3l.4-.6zM415.2 521.5c.1.9.9 1.6 2 1.6.5 0 1.6-.2 2.4-.3 2.4-.5 9.7-1.8 14-2.2.9-.1 1.6-.4 1.9-.7 2.4.5 3.3 1 3.3 1.8 0 .5-.5.5-1.1.5-.7 0-1.6-.1-2.4-.1-3.1 0-7.3 3.2-9 5.9-1 1.5-1.8 4.1-1.8 6.8 0 4.5 2.8 5.6 6.2 6.1h1.6c1.2 0 2 .9 2 1.6 0 .5-.4.6-1.2.6-.3 0-.6 0-1-.1-7.5-.8-9.3-3.3-9.3-8.3 0-6.9 6-11.2 8.8-12.8v-.1c-3.5.3-11.6 2-13 3.1-.4.3-.8.5-1.4.5-1.3 0-2.8-1.6-2.8-2.6 0-.6.2-1 .5-1.3h.3zM444.6 525.5l-1.7 1.5c-.1 0-.2.1-.2.1-.1 0-.2-.1-.2-.2s.1-.2.1-.3c2.8-2.7 5.3-6.8 5.9-9.7l1.7.6c.3.1.5.3.5.5 0 .1-.1.4-.4.4 1 .4 3.9 2 4.8 3.4l.2.8c0 .5-.5.7-.7.7-.2 0-.2 0-.6-.4-1.9-2.8-4-3.9-4.4-4.1-1.1 2.3-2.6 4.4-2.9 4.6h3.6l1.5-1.3 1.3 1.2c.1.1.2.3.2.5s-.2.6-.6.6h-6l-.2-.6-1.6 1.8 1.5 1.2h5.8l.7-1 1.2.8c.2.1.2.3.2.5 0 .1-.2.3-.3.4-.2.1-.3.2-.3.3v8.2c0 .4-.1.4-1.1.7-.2 0-.4-.2-.4-.7v-.9h-6v3h4.6l1.7-1.3 1.5 1.1c.2.2.3.4.3.6 0 .3-.3.5-.6.5h-7.5v2.7h4.8l1.7-1.3 1.5 1.1c.2.2.3.4.3.6 0 .3-.2.5-.6.5h-7.6v1.9c0 .4-.3.4-1.2.7-.2 0-.3-.2-.3-.7v-19zm1.5 2v2.7h6v-2.7h-6zm0 3.6v2.9h6v-2.9h-6zm15.5 1.9c-.9 4.5-2.1 6.7-4.3 8.8-2 1.9-4 2.9-4.2 2.9-.2 0-.2-.2-.2-.2s.1-.2.2-.2c1.1-.7 2.2-1.6 3.3-2.8 3.5-3.6 4.5-8.3 4.6-16.7l1.7.3c.5.1.7.3.7.5s-.2.3-.4.3-.4.1-.4.3l-.1 1.2c.4 2.5 1.1 6.7 3.4 10.7 1.1 1.9 2.7 3.7 4.9 4.8.2.1.2.1.2.2 0 .2-.5.3-.7.3-.4 0-.8.2-.9.5-.1.2-.2.4-.3.4-.2 0-1.3-1.1-2.1-2.3-2.3-2.9-3.5-6.4-4.1-9.3l-.6-2.5-.7 2.8zm-2.3-9.6c-.7 2-3.1 5.4-3.5 5.4-.2 0-.2-.1-.2-.2s0-.2.1-.2c2.5-3.9 3.9-8.5 3.9-11.5l1.7.2c.4 0 .6.1.6.4s-.1.4-.4.4c-.2 0-.4.1-.4.2-.4 1.5-.8 3.1-1.4 4.6h8.2l.8-1.1 1.2 1.2c.3.2.4.4.4.6 0 .2-.1.6-.7.6-.3 0-.6.1-.7.3a51 51 0 0 1-2.8 4.8c-.1.1-.2.1-.2.1-.1 0-.2 0-.3-.3.9-1.7 1.6-3.5 2-5.3h-8.3zM479.1 519.4c.1-.7.8-1.1 1.4-1.1 1.4 0 2.9.8 2.9 1.8 0 .3-.2.6-.3.7-.3.4-.3 1.1-.4 2.2 1.1-.2 2.6-.4 3.4-1 .2-.2.5-.5.7-.5 1 0 2.2.4 2.2.9s-.7.8-1.9 1.2c-1.2.3-3.4.7-4.4.9-.1 1.6-.3 4-.6 5.3.1.2.2.7.2.9 0 1.3-.7 3.8-1.3 4.7-.2.4-.4.7-.6 1-.3.7-.5 1.6-.5 2.5 0 1.8 2.2 2.3 6.5 2.3 4.6 0 8.3-.8 8.3-3.3 0-1.7-.8-4.1-1.6-5.8-.7-1.4-1.4-3.6-1.4-5.5 0-2.5 1.4-4 3.1-4 3.2 0 5.3 2.4 5.3 4.5 0 .9-.1 1.7-.8 1.7-.7 0-.6-.4-1.2-.5h-.2c-.5 0-1.5.2-2.9.6l-.3-.5c1.7-.6 3.2-1.2 3.2-1.9 0-.5-.8-2.7-3.4-2.7-1.1 0-2 .7-2 2.7 0 2.3 1.3 4.7 2 5.9 1 1.7 1.9 3.4 1.9 5.2 0 3-1.5 5.1-10 5.1-5.9 0-7.9-1.2-7.9-3.9 0-.5.3-1.5.5-2.1-.4.2-.8.4-1.5.4-1.7 0-3.2-1.3-3.2-3.7 0-3.3 2.4-5.3 4.7-5.3 1 0 1.6.1 2 .5.1-1 .3-2.9.3-4.2-1.1.1-2.3.2-3.3.2-1.7 0-2.9-.7-3.5-1.7l.4-.6c.7.6 1.6 1.1 3.4 1.1 1 0 2.2-.1 3.1-.3v-2.2c0-1.2-.2-1.6-1.3-1.6-.3 0-.6.1-.8.2l-.2-.1zm-1.7 16.5c1.9 0 2.8-1.1 3.1-3.7.1-.4.2-.9.2-1.3 0-.7-.3-1.7-1.9-1.7-1.7 0-3.3 1.7-3.3 4 .1 2.3 1.3 2.7 1.9 2.7z"/></g><g fill="#4A4B4C"><path d="M93.6 590.7c0-1.8 0-3.7-.1-5.4-.1-1.8-.1-3.6-.2-5.4 1.1.1 2.1.1 3.2.1 1 0 2.1.1 3.2.1s2.1 0 3.2-.1c1-.1 2.1-.1 3.2-.1 2.5 0 4.6.3 6.3 1a10.72 10.72 0 0 1 6.8 7.2c.5 1.7.8 3.7.8 5.8 0 2.8-.5 5.2-1.4 7.1s-2.2 3.5-3.7 4.6c-1.5 1.2-3.2 2-5 2.5-1.8.5-3.5.7-5.2.7H96.3c-.9 0-1.9 0-2.8.1.1-1.7.2-3.5.2-5.3.1-1.8.1-3.6.1-5.5v-7.4zm3.4 7.2c0 3 .1 6 .3 8.9.6.1 1.4.2 2.4.3 1 .1 2 .1 3.1.1 1.5 0 3.1-.2 4.6-.5 1.5-.4 2.9-1.1 4.1-2.1 1.2-1 2.2-2.4 3-4.1.8-1.8 1.2-4 1.2-6.8 0-2.4-.3-4.4-.9-6-.6-1.6-1.4-2.8-2.5-3.7-1.1-.9-2.3-1.5-3.8-1.9-1.5-.3-3.1-.5-4.8-.5-1.3 0-2.4 0-3.5.1s-2.1.2-2.9.3c-.1 1.3-.1 2.8-.2 4.2 0 1.5-.1 3-.1 4.5v7.2zM123.6 599.3c0-3.4.8-6.1 2.5-8.1 1.6-2 4-2.9 7.2-2.9 1.5 0 2.8.2 3.8.7 1.1.5 2 1.1 2.7 1.8.7.8 1.3 1.7 1.6 2.7.4 1 .5 2.1.5 3.3v.8c0 .3 0 .5-.1.8-1.5 0-3-.1-4.5-.1H130c-.9 0-1.8.1-2.8.1v1.1c0 1.1.2 2.1.5 3.1s.8 1.8 1.4 2.5c.6.7 1.4 1.2 2.3 1.6.9.4 1.9.6 3.1.6.6 0 1.1-.1 1.7-.2.6-.2 1.2-.4 1.7-.6.6-.3 1.1-.6 1.6-.9.5-.4.9-.8 1.3-1.2l.2.1-.3 2.1c-.8.7-1.9 1.2-3.1 1.7-1.2.5-2.5.7-3.9.7-1.5 0-2.9-.2-4.1-.7-1.2-.5-2.3-1.1-3.2-2-.9-.9-1.6-1.9-2.1-3.1-.4-1.2-.7-2.5-.7-3.9zm9.7-9.7c-1 0-1.9.2-2.6.7-.7.5-1.3 1.1-1.8 1.8s-.8 1.5-1.1 2.4c-.2.9-.4 1.7-.4 2.4.9 0 1.8.1 2.7.1h5.6c1 0 1.9-.1 2.8-.1 0-.8-.1-1.6-.2-2.4s-.4-1.6-.8-2.4c-.4-.7-.9-1.3-1.6-1.8-.6-.4-1.5-.7-2.6-.7zM147.4 586c0-1.1 0-2.2-.1-3.3 0-1.1-.1-2.1-.1-3.1s-.1-1.8-.1-2.5c.8.1 1.4.2 1.9.2s1.1-.1 1.9-.2c-.1.7-.1 1.5-.1 2.5s-.1 2-.1 3.1 0 2.2-.1 3.3V599.8c0 1.1 0 2.2.1 3.3 0 1.1.1 2.1.1 3.1s.1 1.8.1 2.4c-.6-.1-1.3-.1-1.9-.1-.6 0-1.2 0-1.9.1.1-.6.1-1.5.1-2.4s.1-2 .1-3.1 0-2.2.1-3.3v-10.7-3.1zM158.5 581.4a2.04 2.04 0 0 1 2.1-2.1 2.04 2.04 0 0 1 2.1 2.1 2.04 2.04 0 0 1-2.1 2.1 2.04 2.04 0 0 1-2.1-2.1zm.6 15.2c0-1.3 0-2.6-.1-4 0-1.4-.1-2.7-.3-3.9.8.1 1.4.2 1.9.2s1.1-.1 1.9-.2a332 332 0 0 0-.3 3.9c0 1.4-.1 2.7-.1 4v4.4c0 1.3 0 2.6.1 4s.1 2.6.3 3.8c-.6-.1-1.3-.1-1.9-.1-.6 0-1.2 0-1.9.1.1-1.1.2-2.4.3-3.8s.1-2.7.1-4v-4.4zM168.6 595.1c0-1.2.2-2.2.6-3 .4-.9 1-1.6 1.7-2.1.7-.6 1.6-1 2.6-1.3 1-.3 2-.4 3.1-.4h1.5c.5 0 1.1.1 1.9.1.6.1 1.2.1 1.7.1h1.2c1.6 0 2.7-.1 3.4-.2 0 .1 0 .3-.1.4v.8c0 .2 0 .3.1.4-.8-.1-1.6-.1-2.4-.2-.8-.1-1.5-.1-2.3-.1l-.1.1c.9.5 1.6 1.2 2.1 2.2.5 1 .8 2 .8 3.1 0 2.1-.7 3.7-2.1 4.9-1.4 1.2-3.3 1.8-5.7 1.8h-2.4c-.5 0-1 .2-1.4.5-.4.4-.7.8-.7 1.4 0 .7.2 1.3.5 1.6s1 .5 2 .5c.8 0 1.6 0 2.3.1.8 0 1.5 0 2.3.1 1.3 0 2.4.2 3.3.5.9.3 1.7.7 2.2 1.1.6.5 1 1 1.3 1.6.3.6.4 1.3.4 2a8.03 8.03 0 0 1-2.4 5.7c-.8.8-1.8 1.5-3.1 2s-2.8.8-4.5.8c-2.7 0-4.9-.5-6.4-1.6a5.14 5.14 0 0 1-2.4-4.4c0-.7.1-1.4.4-2 .3-.6.6-1.2 1-1.6.4-.5.9-.9 1.4-1.1.5-.3 1.1-.5 1.6-.6v-.1c-.9-.3-1.5-.7-2-1.3s-.7-1.3-.7-2.1c0-.5.1-.9.3-1.3.2-.4.4-.7.7-1 .3-.3.6-.6 1-.8.4-.2.7-.3 1-.4v-.1c-1.3-.6-2.3-1.4-3-2.4-.3-.8-.7-2.1-.7-3.7zm14.9 18c0-1.7-.5-2.9-1.5-3.5-1-.7-2.6-1-4.9-1-2.1 0-3.7.3-4.9 1-1.1.7-1.7 1.9-1.7 3.7 0 1 .2 1.8.5 2.4.3.7.8 1.2 1.3 1.6s1.2.7 2 .9a9.86 9.86 0 0 0 4.9 0c.8-.2 1.5-.6 2.2-1 .6-.4 1.1-1 1.5-1.7.4-.6.6-1.4.6-2.4zm-2.3-18.2c0-1.8-.4-3.1-1.3-4-.8-.9-1.9-1.4-3.3-1.4-1.5 0-2.7.5-3.5 1.5-.8 1-1.3 2.4-1.3 4.1 0 1.8.4 3.2 1.2 4.2s2 1.5 3.6 1.5c.8 0 1.5-.2 2.1-.5.6-.3 1-.8 1.4-1.3s.7-1.2.8-1.9c.2-.6.3-1.4.3-2.2zM191 586c0-1.1 0-2.2-.1-3.3s-.1-2.1-.1-3.1-.1-1.8-.1-2.5c.8.1 1.4.2 1.9.2s1.1-.1 1.9-.2c-.1.7-.1 1.5-.1 2.5s-.1 2-.1 3.1 0 2.2-.1 3.3v6.2h.1c.8-1.2 1.7-2.1 2.8-2.8 1.1-.7 2.4-1 3.9-1 .8 0 1.6.1 2.4.3.8.2 1.5.6 2.2 1.2.6.5 1.2 1.3 1.6 2.2.4.9.6 2.1.6 3.6 0 1.2 0 2.4-.1 3.7-.1 1.3-.1 2.6-.1 4.1v4c0 .4 0 .8.1 1.2-.6-.1-1.1-.1-1.8-.1-.6 0-1.2 0-1.7.1.1-1.5.1-3 .2-4.5s.1-3.1.1-4.7v-2.6c0-2.1-.4-3.7-1.2-4.8-.8-1.1-1.9-1.6-3.4-1.6-2 0-3.4.6-4.3 1.8-.9 1.2-1.4 2.9-1.4 5.1v2.7c0 1 0 2.1.1 3.1 0 1.1.1 2.1.1 3s.1 1.8.1 2.4c-.6-.1-1.3-.1-1.9-.1-.6 0-1.2 0-1.9.1.1-.6.1-1.5.1-2.4s.1-2 .1-3.1 0-2.2.1-3.3v-10.7-3.1zM217.9 583.1c-.1 1.1-.1 2.1-.2 3.1 0 1-.1 2.1-.1 3.1h1.7c.8 0 1.7 0 2.7-.1V591c-.4 0-.7 0-1.1-.1H217.5c0 .1-.1.6-.1 1.3 0 .8-.1 1.7-.1 2.8s0 2.2-.1 3.4 0 2.2 0 3.2c0 .8 0 1.6.1 2.3s.2 1.4.4 2c.2.6.6 1.1 1 1.4.4.4 1.1.5 1.9.5.2 0 .5 0 .9-.1s.7-.1 1-.2v1c-.5.1-1 .2-1.6.3-.6.1-1.1.2-1.7.2-1.8 0-3.1-.4-3.9-1.3-.8-.9-1.3-2.1-1.3-3.8v-2.5c0-.9.1-1.8.1-2.9 0-1.1.1-2.2.1-3.5v-4.3h-2c-.3 0-.5 0-.8.1 0-.2 0-.3.1-.5v-.5-.4c0-.1 0-.3-.1-.4 1.3.1 2.2.1 2.8.1 0-.6 0-1.3-.1-2.1s0-1.7-.1-2.6l3.5-1.5h.4zM232.3 579.9c-.6 0-1.1.1-1.6.4a3.13 3.13 0 0 0-1.7 2.2c-.1.5-.2 1-.2 1.6 0 .5 0 1.2.1 2.2s.2 1.9.4 2.7h4.4c0 .1 0 .3-.1.4v.8c0 .1 0 .3.1.4-.7 0-1.4-.1-2.2-.1h-2.2v9.1c0 3 .1 6 .1 9.1-.3-.1-.6-.1-.9-.1h-.9c-.6 0-1.2 0-1.8.1.2-3.1.3-6.1.3-9.1v-9.1h-1.5c-.5 0-1 .1-1.5.1 0-.1 0-.3.1-.4v-.4-.4c0-.1 0-.3-.1-.4h3c0-.8.1-1.7.3-2.6.2-1 .4-1.9.7-2.8.3-.9.7-1.8 1.2-2.6.4-.8 1-1.5 1.5-2.1.5-.5 1.1-1 1.9-1.3.8-.4 1.6-.6 2.4-.6.3 0 .6 0 .8.1 0 .6-.1 1.1-.1 1.7 0 .6-.1 1.1-.1 1.7l-.3.1c-.5-.5-1.2-.7-2.1-.7zM237.4 602.3c0-1.5 0-2.8.1-3.8 0-1.1.1-2.1.1-3.1v-3.2c0-1.1 0-2.3-.1-3.5.7.1 1.3.2 1.8.2.4 0 1-.1 1.7-.2l-.3 5.5c-.1 2-.1 4.1-.1 6.2 0 1.5.1 2.6.4 3.3.3.8.6 1.4.9 1.7.4.4.9.8 1.5 1.1s1.3.4 2.1.4a4.99 4.99 0 0 0 4.6-2.7c.2-.5.3-.9.5-1.2.1-.3.2-.8.3-1.3s.1-1.3.1-2.3V592v-1.8c0-.6 0-1.1-.1-1.6.3.1.6.1.9.1.3 0 .6.1.9.1.3 0 .6 0 .9-.1.3 0 .6-.1.8-.1l-.3 6.3V605c0 1.2.1 2.4.1 3.5-.6-.1-1.1-.1-1.6-.1s-1.1 0-1.6.1c0-.3 0-.5.1-.8V605h-.1c-.7 1.3-1.7 2.3-2.8 3-1.1.6-2.4.9-3.7.9-2.2 0-3.9-.6-5.1-1.7-1.4-1-2-2.7-2-4.9zM261.8 586c0-1.1 0-2.2-.1-3.3 0-1.1-.1-2.1-.1-3.1s-.1-1.8-.1-2.5c.8.1 1.4.2 1.9.2s1.1-.1 1.9-.2c-.1.7-.1 1.5-.1 2.5s-.1 2-.1 3.1 0 2.2-.1 3.3V599.8c0 1.1 0 2.2.1 3.3 0 1.1.1 2.1.1 3.1s.1 1.8.1 2.4c-.6-.1-1.3-.1-1.9-.1-.6 0-1.2 0-1.9.1.1-.6.1-1.5.1-2.4s.1-2 .1-3.1 0-2.2.1-3.3v-10.7-3.1zM305.9 585.3c-.1-1.8-.1-3.6-.2-5.4.4.1.7.1 1.1.1s.7.1 1 .1.7 0 1-.1c.3 0 .7-.1 1-.1-.1 1.8-.2 3.7-.2 5.4-.1 1.8-.1 3.6-.1 5.4v7.2c0 1.8 0 3.7.1 5.5.1 1.8.1 3.6.2 5.3-.6-.1-1.3-.1-2.1-.1-.7 0-1.4 0-2.1.1.1-1.7.2-3.5.2-5.3.1-1.8.1-3.6.1-5.5v-3.8c-1.5 0-3 0-4.4-.1h-8.8c-1.4 0-2.9 0-4.4.1v3.8c0 1.8 0 3.7.1 5.5.1 1.8.1 3.6.2 5.3-.6-.1-1.3-.1-2.1-.1-.7 0-1.4 0-2.1.1.1-1.7.2-3.5.2-5.3.1-1.8.1-3.6.1-5.5v-7.2c0-1.8 0-3.7-.1-5.4-.1-1.8-.1-3.6-.2-5.4.4.1.7.1 1.1.1s.7.1 1 .1.7 0 1-.1c.3 0 .7-.1 1-.1-.1 1.8-.2 3.7-.2 5.4-.1 1.8-.1 3.6-.1 5.4v1.5c1.5 0 3 .1 4.4.1h8.8c1.4 0 2.9-.1 4.4-.1v-1.5c.2-1.9.2-3.7.1-5.4zM323.4 582h-2.3c-.8 0-1.6 0-2.4.1s-1.6.1-2.3.1c-.7.1-1.4.1-2 .2.1-.5.2-1 .2-1.3 0-.3-.1-.7-.2-1.3 1.8.1 3.7.1 5.4.1s3.6.1 5.4.1c1.8 0 3.7 0 5.4-.1 1.8 0 3.6-.1 5.4-.1-.1.6-.2 1-.2 1.3 0 .4.1.8.2 1.3-.6-.1-1.3-.2-2-.2-.7-.1-1.5-.1-2.3-.1-.8 0-1.6-.1-2.4-.1H327c-.1 2.9-.1 5.8-.1 8.7v7.2c0 1.8 0 3.7.1 5.5.1 1.8.1 3.6.2 5.3-.6-.1-1.3-.1-2.1-.1-.7 0-1.4 0-2.1.1.1-1.7.2-3.5.2-5.3.1-1.8.1-3.6.1-5.5v-7.2c.2-2.9.2-5.8.1-8.7zM346.8 582h-2.3c-.8 0-1.6 0-2.4.1-.8 0-1.6.1-2.3.1-.7.1-1.4.1-2 .2.1-.5.2-1 .2-1.3 0-.3-.1-.7-.2-1.3 1.8.1 3.7.1 5.4.1 1.8 0 3.6.1 5.4.1 1.8 0 3.7 0 5.4-.1 1.8 0 3.6-.1 5.4-.1-.1.6-.2 1-.2 1.3 0 .4.1.8.2 1.3-.6-.1-1.3-.2-2-.2-.7-.1-1.5-.1-2.3-.1s-1.6-.1-2.4-.1h-2.3c-.1 2.9-.1 5.8-.1 8.7v7.2c0 1.8 0 3.7.1 5.5.1 1.8.1 3.6.2 5.3-.6-.1-1.3-.1-2.1-.1-.7 0-1.4 0-2.1.1.1-1.7.2-3.5.2-5.3s.1-3.6.1-5.5v-7.2c.2-2.9.1-5.8.1-8.7zM364.4 590.7c0-1.8 0-3.7-.1-5.4-.1-1.8-.1-3.6-.2-5.4.7.1 1.4.1 2 .1.7 0 1.4.1 2 .1h1.2c.5 0 1 0 1.4-.1.5 0 1 0 1.4-.1h2.7c.6 0 1.3.1 2 .3.7.1 1.4.3 2 .6a5.67 5.67 0 0 1 3.1 3.2c.3.8.5 1.8.5 3 0 1.8-.4 3.3-1.2 4.5-.8 1.1-1.8 2-2.9 2.7-1.2.6-2.4 1.1-3.7 1.3-1.3.2-2.5.3-3.5.3h-1.8c-.5 0-1.1 0-1.6-.1v2.3c0 1.8 0 3.7.1 5.5.1 1.8.1 3.6.2 5.3-.6-.1-1.3-.1-2.1-.1-.7 0-1.4 0-2.1.1.1-1.7.2-3.5.2-5.3.1-1.8.1-3.6.1-5.5v-7.3zm3.4 3.1c1 .2 1.9.3 3 .3.9 0 1.8-.1 2.7-.3.9-.2 1.8-.6 2.5-1.1.8-.5 1.4-1.2 1.9-2.1.5-.9.7-2.1.7-3.5 0-1.2-.2-2.2-.5-2.9-.3-.8-.8-1.3-1.4-1.8-.6-.4-1.3-.7-2.2-.9-.9-.2-1.8-.2-2.9-.2h-3.8v12.5zM399.4 590.7c0-1.8 0-3.7-.1-5.4-.1-1.8-.1-3.6-.2-5.4.8.1 1.6.1 2.4.1s1.6.1 2.4.1c.8 0 1.6 0 2.4-.1.8-.1 1.6-.1 2.4-.1 1.2 0 2.3.1 3.4.3 1.1.2 2 .6 2.8 1.1.8.5 1.4 1.2 1.9 2s.7 1.9.7 3.2c0 1.3-.3 2.5-.9 3.5-.6 1-1.3 1.8-2.2 2.4-.9.6-1.8 1.1-2.8 1.5-1 .4-1.9.6-2.7.7.3.4.8 1 1.4 1.8s1.2 1.6 2 2.5c.7.9 1.5 1.9 2.3 2.9l2.3 2.9c.7.9 1.4 1.7 2.1 2.5.6.8 1.2 1.3 1.6 1.7-.4-.1-.8-.1-1.3-.1h-2.5c-.4 0-.8 0-1.2.1-.4-.6-1.1-1.5-1.9-2.6-.9-1.2-1.8-2.4-2.8-3.8-1-1.3-2.1-2.7-3.2-4-1.1-1.3-2.1-2.5-3-3.4h-1.6v3.1c0 1.8 0 3.7.1 5.5.1 1.8.1 3.6.2 5.3-.6-.1-1.3-.1-2.1-.1-.7 0-1.4 0-2.1.1.1-1.7.2-3.5.2-5.3.1-1.8.1-3.6.1-5.5v-7.5zm3.5 2.4c.4.1.8.1 1.3.2h1.5c.9 0 1.8-.1 2.7-.3.9-.2 1.8-.5 2.6-1s1.4-1.1 2-2c.5-.8.8-1.9.8-3.1 0-1.1-.2-2-.6-2.7-.4-.7-.9-1.3-1.6-1.7-.6-.4-1.3-.7-2.1-.9-.8-.2-1.5-.2-2.2-.2-1 0-1.8 0-2.4.1-.6 0-1.2.1-1.6.1-.1 1.5-.1 3.1-.2 4.6-.1 1.5-.1 3-.1 4.5v2.4zM422.4 599.3c0-3.4.8-6.1 2.5-8.1 1.6-2 4-2.9 7.2-2.9 1.5 0 2.8.2 3.8.7s2 1.1 2.7 1.8c.7.8 1.3 1.7 1.6 2.7.3 1 .5 2.1.5 3.3v.8c0 .3 0 .5-.1.8-1.5 0-3-.1-4.5-.1h-7.3c-.9 0-1.8.1-2.8.1v1.1c0 1.1.2 2.1.5 3.1s.8 1.8 1.4 2.5c.6.7 1.4 1.2 2.3 1.6.9.4 1.9.6 3.1.6.6 0 1.1-.1 1.7-.2.6-.2 1.2-.4 1.7-.6.6-.3 1.1-.6 1.6-.9.5-.4.9-.8 1.3-1.2l.2.1-.3 2.1c-.8.7-1.9 1.2-3.1 1.7s-2.5.7-3.9.7c-1.5 0-2.9-.2-4.1-.7-1.2-.5-2.3-1.1-3.2-2s-1.6-1.9-2.1-3.1c-.4-1.2-.7-2.5-.7-3.9zm9.7-9.7c-1 0-1.9.2-2.6.7-.7.5-1.3 1.1-1.8 1.8s-.8 1.5-1 2.4c-.2.9-.4 1.7-.4 2.4.9 0 1.8.1 2.7.1h5.6c1 0 1.9-.1 2.8-.1 0-.8-.1-1.6-.2-2.4s-.4-1.6-.8-2.4c-.4-.7-.9-1.3-1.6-1.8-.7-.4-1.6-.7-2.7-.7zM462.6 607.7v3c0 1.1 0 2.2.1 3.3 0 1.1.1 2.1.1 3.1s.1 1.8.1 2.5c-.8-.1-1.4-.2-1.9-.2s-1.1.1-1.9.2c.1-.7.1-1.5.1-2.5s.1-2 .1-3.1 0-2.2.1-3.3v-6.2h-.1c-.8 1.6-1.8 2.7-3 3.4s-2.5 1-3.8 1c-1 0-2.1-.2-3.1-.5s-2-.9-2.8-1.7-1.5-1.9-2.1-3.2c-.5-1.3-.8-2.9-.8-4.9 0-1.8.3-3.4.8-4.8s1.2-2.4 2.1-3.3c.8-.9 1.8-1.5 2.8-1.9s2.1-.6 3.1-.6c1.9 0 3.4.4 4.5 1.3s1.9 1.9 2.4 3.2h.1c0-.7 0-1.3-.1-2s-.1-1.4-.3-2.1c.8.1 1.4.2 1.9.2s1.1-.1 1.9-.2c-.1.7-.1 1.6-.1 2.6s-.1 2.1-.1 3.2 0 2.2-.1 3.3v10.2zm-3.1-9.4c0-1.1-.1-2.1-.3-3.1-.2-1-.6-1.9-1.1-2.6-.5-.8-1.1-1.4-1.9-1.8s-1.7-.7-2.8-.7c-.7 0-1.4.1-2.1.4-.7.3-1.4.7-2 1.4-.6.7-1.1 1.6-1.4 2.8-.4 1.2-.5 2.7-.5 4.5 0 1.2.1 2.3.4 3.3.2 1 .6 1.9 1 2.7.5.8 1 1.4 1.8 1.8a5.12 5.12 0 0 0 5.3-.1c.8-.5 1.5-1.2 2-2.1.5-.9 1-1.9 1.2-3 .2-1.2.4-2.3.4-3.5zM468.5 602.3c0-1.5 0-2.8.1-3.8 0-1.1.1-2.1.1-3.1v-3.2c0-1.1 0-2.3-.1-3.5.7.1 1.3.2 1.8.2.4 0 1-.1 1.7-.2l-.3 5.5c-.1 2-.1 4.1-.1 6.2 0 1.5.1 2.6.4 3.3s.6 1.4.9 1.7c.4.4.9.8 1.5 1.1.6.3 1.3.4 2.1.4a4.99 4.99 0 0 0 4.6-2.7c.2-.5.3-.9.5-1.2.1-.3.2-.8.3-1.3.1-.6.1-1.3.1-2.3V592v-1.8c0-.6 0-1.1-.1-1.6.3.1.6.1.9.1s.6.1.9.1c.3 0 .6 0 .9-.1.3 0 .6-.1.8-.1l-.3 6.3V605c0 1.2.1 2.4.1 3.5-.6-.1-1.1-.1-1.6-.1s-1.1 0-1.6.1c0-.3 0-.5.1-.8V605h-.1c-.7 1.3-1.7 2.3-2.8 3-1.1.6-2.4.9-3.7.9-2.2 0-3.9-.6-5.1-1.7-1.4-1-2-2.7-2-4.9zM490.1 599.3c0-3.4.8-6.1 2.5-8.1 1.6-2 4-2.9 7.2-2.9 1.5 0 2.8.2 3.8.7s2 1.1 2.7 1.8c.7.8 1.3 1.7 1.6 2.7.3 1 .5 2.1.5 3.3v.8c0 .3 0 .5-.1.8-1.5 0-3-.1-4.5-.1h-7.3c-.9 0-1.8.1-2.8.1v1.1c0 1.1.2 2.1.5 3.1s.8 1.8 1.4 2.5c.6.7 1.4 1.2 2.3 1.6.9.4 1.9.6 3.1.6.6 0 1.1-.1 1.7-.2.6-.2 1.2-.4 1.7-.6.6-.3 1.1-.6 1.6-.9.5-.4.9-.8 1.3-1.2l.2.1-.3 2.1c-.8.7-1.9 1.2-3.1 1.7s-2.5.7-3.9.7c-1.5 0-2.9-.2-4.1-.7-1.2-.5-2.3-1.1-3.2-2s-1.6-1.9-2.1-3.1c-.4-1.2-.7-2.5-.7-3.9zm9.7-9.7c-1 0-1.9.2-2.6.7-.7.5-1.3 1.1-1.8 1.8s-.8 1.5-1 2.4c-.2.9-.4 1.7-.4 2.4.9 0 1.8.1 2.7.1h5.6c1 0 1.9-.1 2.8-.1 0-.8-.1-1.6-.2-2.4s-.4-1.6-.8-2.4c-.4-.7-.9-1.3-1.6-1.8-.7-.4-1.6-.7-2.7-.7zM513.3 605.7c.3.3.6.7 1 .9s.9.5 1.4.7c.5.2 1.1.3 1.7.3.5 0 1-.1 1.5-.3s.9-.4 1.3-.7c.4-.3.7-.7.9-1.2.2-.5.3-1 .3-1.6 0-.9-.2-1.5-.7-2-.5-.5-1.1-.8-1.8-1.1-.7-.3-1.5-.6-2.4-.8-.9-.2-1.7-.5-2.4-.9s-1.3-.9-1.8-1.6c-.5-.7-.7-1.6-.7-2.8 0-.9.2-1.8.5-2.5.3-.8.8-1.4 1.3-2 .6-.6 1.3-1 2.2-1.3s1.9-.5 3-.5c1 0 1.9.1 2.6.4.7.3 1.4.5 2 .8-.2.4-.4.9-.6 1.6-.2.6-.3 1.1-.4 1.4h-.5c-.2-.7-.7-1.3-1.3-1.8-.6-.5-1.4-.8-2.4-.8-.4 0-.8.1-1.3.2-.4.1-.8.4-1.1.6s-.6.6-.8 1.1c-.2.4-.3 1-.3 1.6 0 .9.2 1.6.7 2.1.5.5 1.1.9 1.8 1.2s1.5.5 2.4.7c.9.2 1.7.5 2.4.9s1.3.9 1.8 1.6c.5.7.7 1.6.7 2.8 0 .8-.2 1.6-.5 2.4a8 8 0 0 1-1.5 2.1c-.7.6-1.4 1.1-2.4 1.5-.9.4-2 .5-3.2.5-1.3 0-2.4-.1-3.2-.4-.9-.3-1.6-.5-2.2-.9.2-.4.3-.9.5-1.5s.3-1.2.3-1.6h.5c.2.2.4.5.7.9zM533 583.1c-.1 1.1-.1 2.1-.2 3.1 0 1-.1 2.1-.1 3.1h1.7c.8 0 1.7 0 2.7-.1V591c-.4 0-.7 0-1.1-.1H532.6c0 .1-.1.6-.1 1.3 0 .8-.1 1.7-.1 2.8 0 1.1 0 2.2-.1 3.4v3.2c0 .8 0 1.6.1 2.3s.2 1.4.4 2c.2.6.6 1.1 1 1.4.4.4 1.1.5 1.9.5.2 0 .5 0 .9-.1s.7-.1 1-.2v1c-.5.1-1 .2-1.6.3s-1.1.2-1.7.2c-1.8 0-3.1-.4-3.9-1.3-.8-.9-1.3-2.1-1.3-3.8v-2.5c0-.9.1-1.8.1-2.9 0-1.1.1-2.2.1-3.5v-4.3h-2c-.3 0-.5 0-.8.1 0-.2 0-.3.1-.5v-.5-.4c0-.1 0-.3-.1-.4 1.3.1 2.2.1 2.8.1 0-.6 0-1.3-.1-2.1 0-.8 0-1.7-.1-2.6l3.5-1.5h.4zM541.3 605.7c.3.3.6.7 1 .9s.9.5 1.4.7c.5.2 1.1.3 1.7.3.5 0 1-.1 1.5-.3s.9-.4 1.3-.7c.4-.3.7-.7.9-1.2.2-.5.3-1 .3-1.6 0-.9-.2-1.5-.7-2-.5-.5-1.1-.8-1.8-1.1-.7-.3-1.5-.6-2.4-.8-.9-.2-1.7-.5-2.4-.9s-1.3-.9-1.8-1.6c-.5-.7-.7-1.6-.7-2.8 0-.9.2-1.8.5-2.5.3-.8.8-1.4 1.3-2 .6-.6 1.3-1 2.2-1.3s1.9-.5 3-.5c1 0 1.9.1 2.6.4.7.3 1.4.5 2 .8-.2.4-.4.9-.6 1.6-.2.6-.3 1.1-.4 1.4h-.5c-.2-.7-.7-1.3-1.3-1.8-.6-.5-1.4-.8-2.4-.8-.4 0-.8.1-1.3.2-.4.1-.8.4-1.1.6s-.6.6-.8 1.1c-.2.4-.3 1-.3 1.6 0 .9.2 1.6.7 2.1.5.5 1.1.9 1.8 1.2s1.5.5 2.4.7c.9.2 1.7.5 2.4.9s1.3.9 1.8 1.6c.5.7.7 1.6.7 2.8 0 .8-.2 1.6-.5 2.4a8 8 0 0 1-1.5 2.1c-.7.6-1.4 1.1-2.4 1.5-.9.4-2 .5-3.2.5-1.3 0-2.4-.1-3.2-.4-.9-.3-1.6-.5-2.2-.9.2-.4.3-.9.5-1.5s.3-1.2.3-1.6h.5c.2.2.4.5.7.9z"/></g></svg>