<svg xmlns="http://www.w3.org/2000/svg" viewBox="-178.3 -236.8 1000 1000"><path fill="#4A4B4C" d="M395.5 33.7c-12 8-70.8 3.2-89.5-4.4-8.4-3.4-14.5-2.2-18.6.2 1.5-22.5 3.5-47.1 3.5-66.3 14.1-26.9-13.8-86.7-50.6-115.6 38.1 46 50.4 113 40.9 116.9-9.5 3.8-8.7 99.3-7.3 107.6 1.4 8.3-15.9 51.1-32.9 61.4-15.8 9.6-14.3 47.1-14.4 47 0 0-1 46.9-.9 70.1 0 6.4 0 13.4-.1 20.9-.1 7.5-.2 15-.4 22.3-.2 7.3-.4 14.3-.7 20.9-.3 6.6-.6 12.1-1 16.4 4.3-.4 8.6-.6 12.7-.6s8.4.2 12.7.6c-.9-8.1-1.6-16.2-1.8-24.2-.3-8-.4-16.3-.4-24.7v-17c0-2.3.9-3.4 2.8-3.4.8 0 1.5.3 2.3.8.8.6 1.4 1.2 2 2 3.4 3.6 7.4 8.1 12.2 13.6 4.7 5.5 9.7 11.3 14.8 17.5 5.2 6.2 10.4 12.5 15.7 18.8 5.3 6.3 10 11.8 14.1 16.5 2.6-.4 5.2-.6 7.6-.6h14.3c2.5 0 5.4.2 8.6.6-11.9-12.6-23.5-25.4-34.9-38.4-11.4-13-22.5-26-33.2-39 9.8-9.6 20.1-19.1 30.9-28.4 10.8-9.3 22.2-18.8 34.1-28.4-3.2.4-5.8.7-7.9 1-2.1.3-4.1.4-6.2.4-3.4 0-7-.5-10.7-1.4-4.3 5.1-9.1 10.5-14.4 16.1-5.3 5.7-10.4 11-15.4 16s-9.5 9.4-13.6 13.1c-4.1 3.8-6.9 6.3-8.6 7.6-2.3 1.7-4.3 3.2-6.1 4.5-1.8 1.3-3.4 2-4.9 2-2.3 0-3.4-1.8-3.4-5.4.2-22.9-2.6-47.2-.7-70.1l1.5-32.3s46.3-44.6 40.3-61.6c-2.3-6.5-2.4-20.2-1.6-36.9 9.2-2.1 34.4-7.4 46.7-2.9 15.2 5.5 50.9 3.8 67.4-2 16.5-5.8 38.1-39.6 38.1-39.6s-31 20.4-43 28.4z"/><circle fill="#F8DDDE" cx="348.7" cy="105.1" r="6.3"/><circle fill="#F8DDDE" cx="295.7" cy="140.2" r="6.3"/><circle fill="#F8DDDE" cx="414.2" cy="87.5" r="11"/><path fill="#F8DDDE" d="M330.6 89.5a8.194 8.194 0 1 0-4.7-15.7c-4.4 1.3-6.8 5.8-5.5 10.2 1.3 4.3 5.9 6.8 10.2 5.5zm-4.1-13.7c3.2-1 6.7.9 7.6 4.1 1 3.2-.9 6.7-4.1 7.6s-6.7-.9-7.6-4.1c-1-3.2.9-6.6 4.1-7.6z"/><path fill="#FFCCCA" d="M480.1 36.9c2.2 1.4 4.3 2 6.1 1.2 1.8-.7 2.9-2.5 3.5-5.1 5.4 1.4 11.1 7.1 14.3 15.2 4.4 10.9 2.6 21.9-4 24.5-6.6 2.6-15.4-4.1-19.8-14.9-3.2-8.1-3.1-16.2-.1-20.9z"/><path fill="#F1423D" d="M397.5-53c.4 2.8 1.5 4.9 3.3 5.8 1.8.9 4.1.6 6.6-.8 2.7 5.3 2.2 14-2 22.4-5.7 11.3-15.8 17.7-22.6 14.3-6.8-3.4-7.7-15.3-2.1-26.6C385-46.4 391.6-52 397.5-53zm-174 150.9c.3 2.2 1.2 3.8 2.6 4.5s3.2.4 5.1-.6c2.1 4.1 1.7 10.9-1.6 17.3-4.4 8.7-12.2 13.7-17.5 11.1-5.3-2.6-6-11.9-1.6-20.6 3.3-6.6 8.4-11 13-11.7zM522.9-56.2c-1.5 2.4-2.1 4.6-1.3 6.5s2.8 3.1 5.5 3.8c-1.5 5.8-7.6 12-16.3 15.5-11.7 4.8-23.5 2.9-26.4-4.1-2.9-7 4.3-16.6 16-21.4 8.7-3.6 17.4-3.5 22.5-.3z"/><path fill="#FFCCCA" d="M277.3 11.4c-.8-2.3-2.2-3.9-3.9-4.3-1.7-.4-3.6.3-5.5 1.9-3.3-4-4.4-11.5-2.4-19.4.3-1.2.7-2.4 1.1-3.5-1.2.2-2.4.4-3.7.4-8.1.5-15.3-2-18.6-6 1.9-1.5 3-3.2 2.9-5-.1-1.8-1.4-3.4-3.5-4.6 2.8-4.4 9.6-7.8 17.7-8.3 1.3-.1 2.5-.1 3.7 0-.6-1.1-1.1-2.2-1.6-3.4-3-7.6-2.8-15.1 0-19.5 2 1.4 4 1.8 5.7 1.2 1.7-.7 2.8-2.4 3.3-4.8 5 1.3 10.3 6.7 13.3 14.3.5 1.2.8 2.3 1.2 3.5.8-.9 1.7-1.7 2.7-2.5 6.3-5.2 13.5-7.4 18.6-6.1-.7 2.4-.5 4.4.6 5.8 1.1 1.4 3.1 1.9 5.5 1.7.3 5.2-3.2 11.9-9.5 17.1-1 .8-2 1.5-3 2.2 1.1.5 2.2 1.1 3.2 1.8 6.9 4.4 11.2 10.6 11.5 15.8-2.4.1-4.3.9-5.3 2.4s-.8 3.5.1 5.8c-4.9 1.9-12.3.6-19.2-3.7-1.1-.7-2.1-1.4-3-2.2-.2 1.2-.4 2.4-.7 3.6-1.8 7.9-6.4 13.9-11.2 15.8z"/><path fill="#F1423D" d="M278.7-9.6c-.4-1-1-1.7-1.7-1.9-.8-.2-1.6.1-2.4.8-1.5-1.8-2-5.1-1.1-8.6.1-.5.3-1.1.5-1.6-.5.1-1.1.2-1.6.2-3.6.2-6.8-.9-8.3-2.7.9-.7 1.3-1.4 1.3-2.2 0-.8-.6-1.5-1.6-2.1 1.3-2 4.3-3.5 7.9-3.7h1.6c-.3-.5-.5-1-.7-1.5-1.3-3.4-1.3-6.7 0-8.7.9.6 1.8.8 2.5.5s1.2-1.1 1.5-2.1c2.2.6 4.6 3 5.9 6.4.2.5.4 1 .5 1.6.4-.4.8-.8 1.2-1.1 2.8-2.3 6-3.3 8.3-2.7-.3 1.1-.2 2 .3 2.6.5.6 1.4.8 2.5.8.1 2.3-1.4 5.3-4.2 7.6-.4.4-.9.7-1.3 1 .5.2 1 .5 1.4.8 3.1 1.9 5 4.7 5.1 7-1.1 0-1.9.4-2.4 1.1-.4.7-.4 1.6 0 2.6-2.2.8-5.5.3-8.6-1.7-.5-.3-.9-.6-1.3-1-.1.5-.2 1.1-.3 1.6-.8 3.4-2.8 6.1-5 7z"/><circle fill="#58595B" cx="279.9" cy="-26.5" r="3.4"/><path fill="#FFCCCA" d="M365.2 146.4c-1.6-.6-3-.6-4 .1s-1.5 2.1-1.4 3.8c-3.6 0-8.1-2.8-11.4-7.4-.5-.7-1-1.4-1.4-2.2-.4.7-.9 1.4-1.4 2.1-3.4 4.5-7.9 7.2-11.5 7.2.1-1.7-.4-3-1.4-3.8-1-.7-2.4-.8-4-.2-1.1-3.5.2-8.6 3.5-13.1.5-.7 1.1-1.4 1.6-2-.8-.2-1.6-.4-2.5-.7-5.3-1.8-9.3-5.3-10.4-8.7 1.6-.5 2.8-1.3 3.2-2.5.4-1.2 0-2.5-1-3.9 3-2.1 8.2-2.5 13.5-.7.8.3 1.6.6 2.4 1-.1-.8-.1-1.7-.1-2.6 0-5.6 2.1-10.5 5.1-12.6 1 1.4 2.1 2.2 3.3 2.2 1.2 0 2.4-.8 3.4-2.2 2.9 2.2 4.9 7 4.9 12.7 0 .9-.1 1.7-.2 2.6l2.4-.9c5.4-1.7 10.6-1.2 13.5.9-1 1.3-1.5 2.7-1.1 3.9.4 1.2 1.5 2 3.1 2.5-1.2 3.4-5.2 6.8-10.5 8.5-.8.3-1.7.5-2.5.6.6.6 1.1 1.3 1.6 2 3.3 4.9 4.4 10 3.3 13.4z"/><path fill="#F1423D" d="M354.7 136.3c-.7-.3-1.3-.3-1.8.1-.4.3-.7.9-.6 1.7-1.6 0-3.6-1.2-5.1-3.3-.2-.3-.4-.6-.6-1-.2.3-.4.6-.6 1-1.5 2-3.5 3.2-5.1 3.2 0-.8-.2-1.4-.6-1.7-.4-.3-1.1-.3-1.8-.1-.5-1.5.1-3.8 1.6-5.8.2-.3.5-.6.7-.9-.4-.1-.7-.2-1.1-.3-2.4-.8-4.1-2.3-4.6-3.9.7-.2 1.2-.6 1.4-1.1.2-.5 0-1.1-.5-1.7 1.3-.9 3.7-1.1 6-.3.4.1.7.3 1.1.4 0-.4-.1-.8-.1-1.1 0-2.5.9-4.7 2.3-5.6.4.6.9 1 1.5 1s1.1-.4 1.5-1c1.3 1 2.2 3.1 2.2 5.6 0 .4 0 .8-.1 1.1.3-.2.7-.3 1.1-.4 2.4-.8 4.7-.5 6 .4-.5.6-.7 1.2-.5 1.7.2.5.7.9 1.4 1.1-.5 1.5-2.3 3-4.7 3.8-.4.1-.7.2-1.1.3.2.3.5.6.7.9 1.4 2.1 1.9 4.4 1.4 5.9z"/><circle fill="#58595B" cx="346.2" cy="128.1" r="2.4"/><path fill="#FFCCCA" d="M248.5 165.9c-.6-.6-1.3-1-2-.8-.7.1-1.2.7-1.5 1.5-1.7-.8-3.3-3.2-3.8-6.2-.1-.5-.1-.9-.2-1.4-.4.3-.8.5-1.2.7-2.7 1.4-5.4 1.7-7.2.9.4-.8.5-1.6.2-2.1-.3-.6-1-.9-1.9-1 .3-1.9 2-4.1 4.7-5.6l1.2-.6c-.4-.3-.7-.6-1.1-.9-2.2-2.1-3.3-4.6-3.1-6.6.9.1 1.6 0 2.1-.5s.6-1.2.4-2.1c1.9-.3 4.5.6 6.7 2.7.3.3.7.7.9 1 .1-.4.3-.8.5-1.3 1.3-2.7 3.4-4.6 5.3-5 .1.9.5 1.6 1.1 1.8.6.3 1.3.2 2.1-.3.9 1.7.8 4.5-.5 7.2-.2.4-.4.8-.7 1.2.4 0 .9 0 1.4.1 3 .4 5.4 1.8 6.4 3.5-.8.4-1.3 1-1.4 1.6s.3 1.3.9 1.9c-1.3 1.4-4 2.1-7 1.8-.5-.1-.9-.1-1.3-.3.1.4.2.9.3 1.3.7 3.4.1 6.1-1.3 7.5z"/><path fill="#F1423D" d="M245.7 158.6c-.3-.3-.6-.4-.9-.4s-.5.3-.7.7c-.8-.4-1.5-1.4-1.7-2.7 0-.2-.1-.4-.1-.6-.2.1-.3.2-.5.3-1.2.6-2.4.8-3.2.4.2-.4.2-.7.1-1-.1-.3-.4-.4-.8-.4.1-.9.9-1.8 2.1-2.5l.6-.3c-.2-.1-.3-.3-.5-.4-1-.9-1.5-2.1-1.4-2.9.4.1.7 0 .9-.2.2-.2.2-.5.2-.9.8-.2 2 .3 3 1.2.2.1.3.3.4.4.1-.2.1-.4.2-.6.6-1.2 1.5-2 2.4-2.2.1.4.2.7.5.8.3.1.6.1.9-.1.4.8.4 2-.2 3.2-.1.2-.2.4-.3.5h.6c1.3.2 2.4.8 2.8 1.6-.4.2-.6.4-.6.7 0 .3.1.6.4.9-.6.6-1.8 1-3.1.8-.2 0-.4-.1-.6-.1.1.2.1.4.1.6.3 1.4 0 2.6-.6 3.2z"/><circle fill="#58595B" cx="243.5" cy="152.8" r="1.3"/><path fill="#FFCCCA" d="M452.6-77.5c-.9-.2-1.6-.1-2.1.3s-.7 1.2-.5 2.1c-1.9.2-4.5-1-6.5-3.2-.3-.3-.6-.7-.9-1.1l-.6 1.2c-1.5 2.6-3.8 4.3-5.7 4.5-.1-.9-.4-1.6-1-1.9-.6-.3-1.3-.3-2.1.1-.8-1.8-.4-4.6 1.1-7.2.2-.4.5-.8.8-1.1-.4 0-.9-.1-1.4-.2-3-.6-5.3-2.2-6.1-4 .8-.4 1.4-.9 1.5-1.5.1-.6-.2-1.3-.8-2 1.4-1.3 4.2-1.8 7.2-1.2.5.1.9.2 1.3.4-.1-.4-.2-.9-.2-1.4-.3-3 .5-5.7 1.9-7 .6.7 1.3 1.1 1.9 1 .7-.1 1.2-.6 1.7-1.4 1.7 1 3 3.4 3.3 6.4 0 .5.1.9.1 1.4l1.2-.6c2.8-1.2 5.6-1.3 7.3-.3-.5.8-.6 1.5-.4 2.1.3.6.9 1 1.8 1.2-.4 1.9-2.3 3.9-5.1 5.2-.4.2-.9.3-1.3.5.3.3.7.6 1 1 2.1 2.2 3 4.8 2.6 6.7z"/><path fill="#F1423D" d="M446.4-82.2c-.4-.1-.7-.1-.9.1-.2.2-.3.5-.2.9-.9.1-2-.4-2.9-1.4-.1-.2-.3-.3-.4-.5-.1.2-.2.4-.3.5-.7 1.2-1.7 1.9-2.5 2 0-.4-.2-.7-.4-.9s-.6-.1-1 .1c-.3-.8-.2-2 .5-3.2.1-.2.2-.4.3-.5-.2 0-.4 0-.6-.1-1.3-.3-2.3-1-2.7-1.8.4-.2.6-.4.7-.7.1-.3-.1-.6-.4-.9.6-.6 1.9-.8 3.2-.5.2 0 .4.1.6.2 0-.2-.1-.4-.1-.6-.1-1.3.2-2.5.9-3.1.3.3.6.5.9.4.3 0 .5-.3.7-.6.7.4 1.4 1.5 1.5 2.9v.6c.2-.1.4-.2.5-.3 1.2-.5 2.5-.6 3.2-.1-.2.3-.3.7-.2.9.1.3.4.4.8.5-.2.8-1 1.8-2.3 2.3-.2.1-.4.2-.6.2l.4.4c1 1.1 1.4 2.3 1.3 3.2z"/><circle fill="#58595B" cx="441.4" cy="-86.1" r="1.3"/><path fill="#FFCCCA" d="M277.9-129.4c2.2.2 4-.3 5.1-1.6 1-1.3 1.2-3.1.5-5.3 4.6-1.2 11.3.8 17.1 5.5 7.8 6.4 11 15.4 7.2 20.1-3.8 4.7-13.3 3.4-21.1-3-5.8-4.8-9-10.9-8.8-15.7zm103 196.9c-1.3-1.3-2.7-2-4.1-1.7-1.3.2-2.4 1.4-3.2 3.1-3.6-1.7-6.7-6.5-7.9-12.6-.2-.9-.3-1.9-.4-2.8-.8.5-1.5 1-2.4 1.5-5.4 3-11.2 3.5-14.8 1.8.8-1.7 1-3.2.4-4.4-.6-1.2-2-1.9-3.9-2.1.5-3.9 4.1-8.4 9.6-11.4.8-.5 1.7-.9 2.5-1.2-.7-.6-1.5-1.2-2.1-1.8-4.5-4.3-6.8-9.5-6.3-13.5 1.8.3 3.4 0 4.3-1 .9-1 1.1-2.5.8-4.3 3.9-.7 9.3 1.3 13.8 5.6.7.7 1.3 1.3 1.9 2 .3-.9.6-1.7 1.1-2.6 2.7-5.6 7-9.4 10.9-10.2.3 1.8 1 3.2 2.3 3.8 1.2.6 2.8.3 4.4-.6 1.9 3.5 1.6 9.3-1 14.8-.4.9-.9 1.7-1.4 2.5.9 0 1.9.1 2.8.2 6.1.8 11.1 3.7 13 7.2-1.7.9-2.7 2-2.9 3.3-.2 1.3.5 2.7 1.9 4-2.7 2.9-8.3 4.4-14.4 3.6-1-.1-1.9-.3-2.8-.5.3.9.5 1.8.7 2.7 1.2 6.1-.1 11.7-2.8 14.6z"/><path fill="#F1423D" d="M375.1 52.5c-.6-.6-1.2-.9-1.8-.8-.6.1-1.1.6-1.4 1.4-1.6-.8-3-2.9-3.5-5.6-.1-.4-.1-.8-.2-1.2-.3.2-.7.5-1.1.7-2.4 1.3-5 1.6-6.6.8.4-.7.5-1.4.2-2-.3-.5-.9-.8-1.7-.9.2-1.8 1.8-3.8 4.3-5.1.4-.2.8-.4 1.1-.5-.3-.2-.6-.5-1-.8-2-1.9-3-4.2-2.8-6 .8.1 1.5 0 1.9-.4.4-.4.5-1.1.3-1.9 1.7-.3 4.1.6 6.1 2.5l.9.9c.1-.4.3-.8.5-1.2 1.2-2.5 3.1-4.2 4.8-4.5.1.8.5 1.4 1 1.7.5.3 1.2.1 1.9-.3.8 1.6.7 4.1-.5 6.6-.2.4-.4.8-.6 1.1.4 0 .8 0 1.3.1 2.7.4 4.9 1.7 5.8 3.2-.7.4-1.2.9-1.3 1.5-.1.6.2 1.2.9 1.8-1.2 1.3-3.7 2-6.4 1.6-.4-.1-.8-.1-1.2-.2l.3 1.2c.6 2.6.1 5.1-1.2 6.3z"/><circle fill="#58595B" cx="370.5" cy="40.5" r="2.6"/><path fill="#FFCCCA" d="M290.1 94.9c-1.4-1.1-2.8-1.7-4-1.3-1.3.3-2.2 1.5-2.8 3.2-3.6-1.3-7-5.7-8.6-11.4-.2-.9-.4-1.8-.6-2.6-.7.6-1.4 1.1-2.2 1.6-4.9 3.3-10.4 4.3-13.9 3 .7-1.7.7-3.1 0-4.2s-2.1-1.6-3.9-1.7c.2-3.8 3.2-8.4 8.2-11.7.8-.5 1.5-1 2.3-1.4-.7-.5-1.5-1-2.2-1.6-4.6-3.7-7.3-8.5-7.1-12.3 1.8.1 3.2-.3 4-1.3.8-1 .9-2.5.4-4.2 3.7-1 9 .5 13.6 4.2.7.6 1.4 1.2 2 1.8.2-.9.5-1.7.8-2.6 2.1-5.6 5.9-9.6 9.5-10.6.4 1.7 1.3 3 2.5 3.4 1.2.5 2.7.1 4.1-1 2.1 3.2 2.3 8.7.2 14.3-.3.9-.7 1.7-1.1 2.5.9-.1 1.8-.1 2.7 0 5.9.3 10.9 2.6 13 5.8-1.5 1-2.4 2.1-2.5 3.4-.1 1.3.8 2.5 2.2 3.6-2.4 3-7.6 4.9-13.5 4.6-.9 0-1.8-.1-2.7-.3.3.8.6 1.7.9 2.6 1.8 5.8 1.1 11.2-1.3 14.2z"/><path fill="#F1423D" d="M283.4 81.1c-.6-.5-1.2-.7-1.8-.6-.6.2-1 .7-1.2 1.4-1.6-.6-3.1-2.5-3.8-5.1l-.3-1.2c-.3.3-.6.5-1 .7-2.2 1.5-4.6 1.9-6.2 1.3.3-.7.3-1.4 0-1.9s-.9-.7-1.7-.7c.1-1.7 1.4-3.7 3.6-5.2.3-.2.7-.4 1-.6-.3-.2-.7-.4-1-.7-2.1-1.6-3.3-3.8-3.2-5.5.8.1 1.4-.1 1.8-.6.4-.5.4-1.1.2-1.9 1.6-.4 4 .2 6.1 1.9.3.3.6.5.9.8.1-.4.2-.8.4-1.1.9-2.5 2.6-4.3 4.2-4.7.2.8.6 1.3 1.1 1.5.5.2 1.2 0 1.8-.4.9 1.4 1 3.9.1 6.4-.1.4-.3.8-.5 1.1h1.2c2.6.1 4.9 1.2 5.8 2.6-.7.4-1.1.9-1.1 1.5s.3 1.1 1 1.6c-1.1 1.3-3.4 2.2-6 2.1-.4 0-.8-.1-1.2-.1.1.4.3.7.4 1.1.7 2.5.4 5-.6 6.3z"/><circle fill="#58595B" cx="277.9" cy="70" r="2.5"/><path opacity=".5" fill="#F1423D" d="M5.6-59.4c1.6.3 2.9.1 3.7-.7s1.1-2.1.8-3.7c3.4-.5 8 1.5 11.7 5.3 5 5.2 6.6 11.8 3.5 14.9-3.1 3-9.7 1.3-14.8-3.9C6.8-51.4 5-56 5.6-59.4z"/><path fill="#FFCCCA" d="M690.6 354c.4 1.8 1.3 3.1 2.5 3.5 1.2.5 2.7.1 4.2-.9 2.1 3.3 2.3 9 .1 14.6-3 7.7-9.1 12.4-13.7 10.6-4.6-1.8-6-9.4-3-17.1 2.2-5.6 6.2-9.7 9.9-10.7z"/><circle fill="#F8DDDE" cx="295.7" cy="393.7" r="6.8"/><circle fill="#F8DDDE" cx="389.6" cy="423.2" r="11.8"/><path fill="#FFCCCA" d="M155.9 346.4c1.3 2 1.8 4 1.1 5.6s-2.4 2.7-4.7 3.2c1.3 5 6.6 10.3 14 13.3 10.1 4.1 20.2 2.4 22.6-3.6 2.4-6.1-3.7-14.3-13.8-18.3-7.4-3-14.8-2.9-19.2-.2z"/><path fill="#F8DDDE" d="M306.3 455.9c1 4.7-2 9.4-6.7 10.4s-9.4-2-10.4-6.7 2-9.4 6.7-10.4 9.3 2 10.4 6.7zm-15.1 3.3c.8 3.6 4.3 5.8 7.8 5.1 3.6-.8 5.8-4.3 5.1-7.8-.8-3.6-4.3-5.8-7.8-5.1-3.6.7-5.8 4.2-5.1 7.8z"/><path fill="#4A4B4C" d="M413.6 328.1c2.4-5.5 4.9-11 7.4-16.6 2.5-5.6 5-11.1 7.5-16.7s5-11.1 7.4-16.6c2.4-5.5 4.9-10.9 7.3-16.2 2.4-5.3 4.7-10.4 6.9-15.3s4.3-9.5 6.4-13.9c2-4.4 3.9-8.5 5.7-12.2s3.3-7.2 4.8-10.4 2.7-5.9 3.8-8.1 1.9-4 2.6-5.3c-1.9.5-3.6.8-5.2 1.1s-2.9.4-4.2.4c-1.2 0-2.6-.1-4.2-.4s-3.3-.6-5.2-1.1c-2.8 9-5.9 18.2-9.1 27.4-3.2 9.2-6.7 18.6-10.3 28-3.6 9.4-7.3 18.6-11.1 27.4s-7.7 17.4-11.6 25.7c-4-9.4-7.8-18.7-11.6-27.8-3.8-9.1-7.4-18.1-11-27-3.6-8.9-7-17.8-10.2-26.7-3.3-9-6.3-17.9-9.3-27-1.2.2-2.4.4-3.5.5s-2.2.3-3.2.5c-1 .1-2.1.2-3.1.3-1 .1-2.1.1-3.1.1s-2.1 0-3.1-.1-2.1-.2-3.1-.3c-1-.1-2.1-.3-3.3-.5s-2.3-.3-3.5-.5c.7 1.5 1.5 3.4 2.5 5.7 1 2.3 2.1 5 3.5 8.1 1.3 3.1 2.7 6.5 4.3 10.1s3.2 7.5 4.9 11.6c1.7 4.1 3.5 8.3 5.4 12.7 1.9 4.4 3.8 8.9 5.8 13.6 2 4.7 3.9 9.3 5.9 13.9 1.9 4.6 3.8 9.1 5.7 13.6 1.9 4.5 3.7 8.8 5.5 13.1 1.8 4.3 3.5 8.4 5.1 12.5 1.6 4.1 3.1 7.7 4.5 11 1.3 3.3 2.5 6.2 3.6 8.8-5.2 12.3-11.6 23.9-16.7 32.5-58.4 97-141.3 28.8-167.2 13.2-21.3-12.9-30.7 25-84 45 6 17.9 57.1-38.4 77.1-32.5 25.8 7.7 112.3 96.6 179.4-17.3"/><path fill="#FFCCCA" d="M271.5 378.8c-2.6.4-4.8 0-6.1-1.4-1.3-1.4-1.6-3.6-1.1-6.1-5.5-1-13.2 1.8-19.5 7.8-1 .9-1.9 1.9-2.7 2.9-.4-1.2-.9-2.5-1.5-3.7-3.7-7.9-9.8-13.4-15.3-14.4-.4 2.6-1.5 4.5-3.2 5.3-1.7.8-3.9.4-6.2-.9-2.7 4.9-2.3 13.1 1.4 21 .6 1.2 1.2 2.4 1.9 3.5-1.3 0-2.6.1-4 .3-8.7 1.1-15.7 5.2-18.5 10.1 2.3 1.2 3.8 2.8 4.1 4.7.2 1.9-.8 3.8-2.8 5.6 3.9 4.1 11.7 6.3 20.4 5.2 1.3-.2 2.6-.4 3.9-.7-.4 1.2-.7 2.5-1 3.8-1.6 8.6.1 16.6 3.9 20.7 1.9-1.8 3.9-2.8 5.8-2.4 1.9.4 3.4 1.9 4.5 4.4 5.1-2.4 9.6-9.2 11.2-17.8.3-1.3.4-2.7.5-3.9 1.1.7 2.2 1.5 3.4 2.1 7.7 4.2 15.8 5.1 20.9 2.7-1.2-2.4-1.4-4.5-.5-6.2.9-1.7 2.9-2.6 5.5-2.9-.7-5.6-5.8-12-13.4-16.2-1.2-.7-2.4-1.2-3.6-1.7 1-.8 2.1-1.6 3-2.5 6.4-6.3 9.7-13.8 9-19.3z"/><path fill="#F1423D" d="M252.4 391c-1.2.2-2.1 0-2.7-.6-.6-.6-.7-1.6-.5-2.7-2.5-.5-5.9.8-8.7 3.5-.4.4-.8.8-1.2 1.3-.2-.5-.4-1.1-.7-1.6-1.7-3.5-4.4-6-6.8-6.4-.2 1.2-.7 2-1.4 2.4-.8.4-1.7.2-2.8-.4-1.2 2.2-1 5.8.6 9.4.3.5.5 1.1.8 1.6-.6 0-1.2 0-1.8.1-3.9.5-7 2.3-8.2 4.5 1 .5 1.7 1.3 1.8 2.1.1.8-.4 1.7-1.2 2.5 1.7 1.8 5.2 2.8 9.1 2.3.6-.1 1.2-.2 1.7-.3-.2.6-.3 1.1-.4 1.7-.7 3.8 0 7.4 1.7 9.2.8-.8 1.7-1.2 2.6-1.1.8.2 1.5.9 2 1.9 2.3-1.1 4.3-4.1 5-7.9.1-.6.2-1.2.2-1.8.5.3 1 .7 1.5.9 3.4 1.9 7 2.3 9.3 1.2-.5-1.1-.6-2-.2-2.8s1.3-1.2 2.5-1.3c-.3-2.5-2.6-5.3-6-7.2-.5-.3-1.1-.5-1.6-.8.5-.3.9-.7 1.4-1.1 2.8-2.8 4.3-6.1 4-8.6z"/><circle fill="#58595B" cx="237" cy="400.9" r="3.7"/><path fill="#FFCCCA" d="M167 427.5c-1.4-1.2-2.1-2.5-1.9-3.9.2-1.3 1.2-2.4 2.8-3.3-1.9-3.4-6.8-6.2-12.9-6.9-.9-.1-1.9-.2-2.8-.2.5-.8.9-1.6 1.3-2.4 2.5-5.5 2.7-11.2.8-14.6-1.6.9-3.1 1.2-4.3.7s-2-1.9-2.3-3.7c-3.8.8-8 4.6-10.5 10.1-.4.9-.7 1.7-1 2.6-.6-.7-1.2-1.3-1.9-2-4.5-4.1-9.8-6-13.6-5.3.4 1.8.2 3.3-.7 4.3-.9 1-2.4 1.3-4.2 1-.4 3.9 1.9 9 6.4 13.1.7.6 1.4 1.2 2.1 1.7-.8.3-1.7.7-2.5 1.2-5.3 3-8.8 7.4-9.2 11.3 1.8.2 3.2.8 3.8 2 .7 1.2.5 2.7-.3 4.3 3.5 1.6 9.2 1 14.5-2 .8-.5 1.6-1 2.3-1.5.1.9.2 1.8.4 2.7 1.2 6 4.4 10.6 7.9 12.3.7-1.7 1.8-2.8 3.1-3 1.3-.3 2.7.4 4 1.6 2.6-2.9 3.8-8.4 2.6-14.4-.2-.9-.4-1.8-.7-2.7.9.2 1.8.4 2.7.5 6 .9 11.4-.6 14.1-3.5z"/><path fill="#F1423D" d="M151.9 422.8c-.6-.5-.9-1.1-.9-1.7.1-.6.5-1.1 1.2-1.5-.9-1.5-3-2.8-5.7-3.1-.4 0-.8-.1-1.2-.1.2-.3.4-.7.6-1.1 1.1-2.5 1.2-5 .4-6.5-.7.4-1.4.5-1.9.3s-.9-.8-1-1.6c-1.7.3-3.6 2-4.7 4.5-.2.4-.3.8-.4 1.1-.3-.3-.5-.6-.9-.9-2-1.8-4.4-2.7-6.1-2.4.2.8.1 1.5-.3 1.9-.4.4-1.1.6-1.9.5-.2 1.7.8 4 2.8 5.9.3.3.6.5.9.8-.4.2-.7.3-1.1.5-2.4 1.3-3.9 3.3-4.1 5 .8.1 1.4.4 1.7.9.3.5.2 1.2-.1 1.9 1.6.7 4.1.4 6.4-.9.4-.2.7-.4 1-.7 0 .4.1.8.2 1.2.5 2.7 1.9 4.7 3.5 5.5.3-.7.8-1.2 1.4-1.4.6-.1 1.2.2 1.8.7 1.2-1.3 1.7-3.8 1.1-6.4l-.3-1.2c.4.1.8.2 1.2.2 2.8.6 5.3-.1 6.4-1.4z"/><circle fill="#58595B" cx="139.8" cy="419.1" r="2.5"/><path fill="#FFCCCA" d="M432.1 377.7c-.9-.3-1.6-.8-1.8-1.4-.2-.7 0-1.5.6-2.2-1.7-1.2-4.7-1.5-7.8-.4-.5.2-.9.3-1.4.5.1-.5.1-1 .1-1.5 0-3.2-1.2-6-2.9-7.3-.6.8-1.2 1.3-1.9 1.3s-1.4-.5-1.9-1.3c-1.7 1.2-2.8 4-2.8 7.3 0 .5 0 1 .1 1.5-.4-.2-.9-.4-1.4-.5-3.1-1-6.1-.7-7.8.5.6.8.8 1.6.6 2.2-.2.7-.9 1.2-1.8 1.5.7 2 3 3.9 6.1 4.9.5.2 1 .3 1.4.4-.3.4-.6.7-.9 1.1-1.9 2.6-2.6 5.6-1.9 7.6.9-.3 1.7-.3 2.3.1.6.4.8 1.2.8 2.2 2.1 0 4.7-1.6 6.6-4.2.3-.4.6-.8.8-1.2.2.4.5.8.8 1.2 1.9 2.6 4.5 4.2 6.6 4.2 0-1 .2-1.8.8-2.2.6-.4 1.4-.4 2.3-.1.6-2-.1-4.9-2-7.6-.3-.4-.6-.8-.9-1.1.5-.1.9-.2 1.4-.4 3-1.2 5.3-3.1 5.9-5.1z"/><path fill="#F1423D" d="M423.8 378.8c-.4-.1-.7-.3-.8-.6-.1-.3 0-.6.3-1-.8-.5-2.1-.6-3.5-.2-.2.1-.4.2-.6.2v-.7c0-1.4-.5-2.7-1.3-3.2-.2.4-.5.6-.9.6-.3 0-.6-.2-.9-.6-.7.6-1.3 1.8-1.3 3.2v.7c-.2-.1-.4-.2-.6-.2-1.4-.4-2.7-.3-3.5.2.3.3.4.7.3 1-.1.3-.4.5-.8.6.3.9 1.3 1.8 2.7 2.2.2.1.4.1.6.2-.1.2-.3.3-.4.5-.8 1.2-1.1 2.5-.9 3.4.4-.1.8-.1 1 0s.4.5.4 1c.9 0 2.1-.7 2.9-1.9.1-.2.2-.4.4-.6.1.2.2.4.4.6.9 1.2 2 1.9 2.9 1.9 0-.4.1-.8.4-1 .3-.2.6-.2 1 0 .3-.9 0-2.2-.9-3.4-.1-.2-.3-.3-.4-.5.2 0 .4-.1.6-.2 1.6-.4 2.6-1.3 2.9-2.2z"/><circle fill="#58595B" cx="417.1" cy="379.7" r="1.4"/><path fill="#FFCCCA" d="M369.5 408.9c-1.7-.7-2.8-1.6-3.1-2.9-.3-1.3.3-2.6 1.5-4-2.9-2.5-8.4-3.4-14.2-2-.9.2-1.8.5-2.6.8.2-.9.3-1.8.4-2.7.5-5.9-1.2-11.2-4.1-13.7-1.1 1.4-2.4 2.1-3.7 2-1.3-.1-2.4-1.1-3.3-2.6-3.3 2-5.8 6.9-6.3 12.8-.1.9-.1 1.8-.1 2.7l-2.4-1.2c-5.5-2.3-11-2.3-14.3-.3 1 1.5 1.3 3 .8 4.2-.5 1.2-1.8 2-3.5 2.4.9 3.7 4.8 7.7 10.3 10 .9.4 1.7.7 2.5.9-.6.6-1.3 1.2-1.9 1.9-3.9 4.5-5.6 9.8-4.7 13.5 1.7-.5 3.2-.3 4.2.5 1 .9 1.3 2.3 1.2 4.1 3.8.3 8.8-2.2 12.6-6.7.6-.7 1.1-1.4 1.6-2.1.4.8.8 1.6 1.3 2.4 3.1 5.1 7.6 8.3 11.4 8.7.1-1.8.7-3.2 1.8-3.8 1.1-.7 2.6-.6 4.2.2 1.5-3.5.6-9-2.4-14.1-.5-.8-1-1.5-1.5-2.2.9-.1 1.8-.3 2.7-.5 5.6-1.5 10.1-4.8 11.6-8.3z"/><path fill="#F1423D" d="M354.1 409.6c-.7-.3-1.2-.7-1.4-1.3s.1-1.2.7-1.8c-1.3-1.1-3.7-1.5-6.3-.9l-1.2.3c.1-.4.1-.8.2-1.2.2-2.6-.5-5-1.8-6.1-.5.6-1.1 1-1.7.9-.6 0-1.1-.5-1.5-1.2-1.5.9-2.6 3.1-2.8 5.7v1.2c-.3-.2-.7-.4-1.1-.5-2.4-1-4.9-1-6.4-.1.4.7.6 1.3.4 1.9-.2.5-.8.9-1.6 1.1.4 1.7 2.1 3.4 4.6 4.4.4.2.8.3 1.1.4-.3.3-.6.6-.8.9-1.7 2-2.5 4.4-2.1 6 .8-.2 1.4-.1 1.9.2.4.4.6 1 .5 1.8 1.7.1 3.9-1 5.6-3 .3-.3.5-.6.7-1 .2.4.4.7.6 1.1 1.4 2.3 3.4 3.7 5.1 3.9 0-.8.3-1.4.8-1.7.5-.3 1.2-.3 1.9.1.7-1.6.3-4-1.1-6.3-.2-.4-.4-.7-.7-1 .4 0 .8-.1 1.2-.2 2.5-.6 4.5-2 5.2-3.6z"/><circle fill="#58595B" cx="341.7" cy="410.2" r="2.5"/><path fill="#FFCCCA" d="M460.3 8c-1.3-.4-2.3-1.1-2.6-2-.3-1 0-2.1.9-3.2-2.4-1.7-6.7-2.1-11.1-.6-.7.2-1.3.5-2 .8.1-.7.1-1.4.1-2.1 0-4.6-1.7-8.6-4.1-10.4-.8 1.2-1.7 1.8-2.7 1.8-1 0-2-.7-2.8-1.8-2.4 1.8-4 5.8-4 10.4 0 .7.1 1.4.1 2.1-.6-.3-1.3-.5-2-.8-4.4-1.4-8.7-1-11.1.7.9 1.1 1.2 2.2.9 3.2-.3 1-1.2 1.7-2.6 2.1.9 2.8 4.2 5.6 8.7 7 .7.2 1.4.4 2 .5-.5.5-.9 1.1-1.3 1.6-2.7 3.8-3.7 8-2.7 10.8 1.3-.5 2.5-.5 3.3.1.8.6 1.2 1.7 1.2 3.1 3 0 6.7-2.3 9.4-6.1.4-.6.8-1.2 1.1-1.8.3.6.7 1.2 1.1 1.8 2.7 3.7 6.5 6 9.4 6 0-1.4.3-2.5 1.1-3.1.8-.6 2-.6 3.3-.2.9-2.8-.1-7-2.9-10.8-.4-.6-.9-1.1-1.3-1.6.7-.1 1.4-.3 2-.5 4.4-1.3 7.7-4.1 8.6-7z"/><path fill="#F1423D" d="M448.4 9.7c-.6-.2-1-.5-1.2-.9-.1-.4 0-.9.4-1.4-1.1-.8-3-.9-5-.3l-.9.3c0-.3.1-.6 0-.9 0-2.1-.8-3.8-1.8-4.6-.4.5-.8.8-1.2.8-.5 0-.9-.3-1.2-.8-1.1.8-1.8 2.6-1.8 4.6 0 .3 0 .6.1.9l-.9-.3c-2-.6-3.9-.5-5 .3.4.5.5 1 .4 1.4-.1.4-.6.7-1.1.9.4 1.3 1.9 2.5 3.9 3.1.3.1.6.2.9.2-.2.2-.4.5-.6.7-1.2 1.7-1.6 3.6-1.2 4.8.6-.2 1.1-.2 1.5.1.4.3.5.8.5 1.4 1.3 0 3-1 4.2-2.7.2-.3.4-.5.5-.8.2.3.3.5.5.8 1.2 1.7 2.9 2.7 4.2 2.7 0-.6.1-1.1.5-1.4.4-.3.9-.3 1.5-.1.4-1.3-.1-3.1-1.3-4.8-.2-.3-.4-.5-.6-.7.3-.1.6-.1.9-.2 1.9-.6 3.4-1.9 3.8-3.1z"/><circle fill="#58595B" cx="438.8" cy="11" r="1.9"/><g opacity=".8"><path fill="#FFCCCA" d="M639.1 182c-.9-.3-1.6-.8-1.8-1.4-.2-.7 0-1.5.6-2.2-1.7-1.2-4.7-1.5-7.8-.4-.5.2-.9.3-1.4.5.1-.5.1-1 .1-1.5 0-3.2-1.2-6-2.9-7.3-.6.8-1.2 1.3-1.9 1.3s-1.4-.5-1.9-1.3c-1.7 1.2-2.8 4-2.8 7.3 0 .5 0 1 .1 1.5-.4-.2-.9-.4-1.4-.5-3.1-1-6.1-.7-7.8.5.6.8.8 1.6.6 2.2-.2.7-.9 1.2-1.8 1.5.7 2 3 3.9 6.1 4.9.5.2 1 .3 1.4.4-.3.4-.6.7-.9 1.1-1.9 2.6-2.6 5.6-1.9 7.6.9-.3 1.7-.3 2.3.1.6.4.8 1.2.8 2.2 2.1 0 4.7-1.6 6.6-4.2.3-.4.6-.8.8-1.2.2.4.5.8.8 1.2 1.9 2.6 4.5 4.2 6.6 4.2 0-1 .2-1.8.8-2.2.6-.4 1.4-.4 2.3-.1.6-2-.1-4.9-2-7.6-.3-.4-.6-.8-.9-1.1.5-.1.9-.2 1.4-.4 2.9-1.1 5.2-3.1 5.9-5.1z"/><path fill="#F1423D" d="M630.7 183.1c-.4-.1-.7-.3-.8-.6-.1-.3 0-.6.3-1-.8-.5-2.1-.6-3.5-.2-.2.1-.4.2-.6.2v-.7c0-1.4-.5-2.7-1.3-3.2-.2.4-.5.6-.9.6-.3 0-.6-.2-.9-.6-.7.6-1.3 1.8-1.3 3.2v.7c-.2-.1-.4-.2-.6-.2-1.4-.4-2.7-.3-3.5.2.3.3.4.7.3 1-.1.3-.4.5-.8.6.3.9 1.3 1.8 2.7 2.2.2.1.4.1.6.2-.1.2-.3.3-.4.5-.8 1.2-1.1 2.5-.9 3.4.4-.1.8-.1 1 0 .3.2.4.5.4 1 .9 0 2.1-.7 2.9-1.9.1-.2.2-.4.4-.6.1.2.2.4.4.6.9 1.2 2 1.9 2.9 1.9 0-.4.1-.8.4-1s.6-.2 1 0c.3-.9 0-2.2-.9-3.4-.1-.2-.3-.3-.4-.5.2 0 .4-.1.6-.2 1.6-.4 2.6-1.3 2.9-2.2z"/><circle fill="#58595B" cx="624" cy="184.1" r="1.4"/></g><path fill="#F8DDDE" d="M79.3 180.9c1 4.7-2 9.4-6.7 10.4s-9.4-2-10.4-6.7 2-9.4 6.7-10.4 9.3 2 10.4 6.7zm-15.1 3.3c.8 3.6 4.3 5.8 7.8 5.1 3.6-.8 5.8-4.3 5.1-7.8-.8-3.6-4.3-5.8-7.8-5.1-3.6.7-5.8 4.2-5.1 7.8z"/><circle fill="#F8DDDE" cx="-22.3" cy="272.7" r="6.8"/><path fill="#F8DDDE" d="M763-105.2c1 4.7-2 9.4-6.7 10.4s-9.4-2-10.4-6.7 2-9.4 6.7-10.4 9.4 2 10.4 6.7zm-15 3.3c.8 3.6 4.3 5.8 7.8 5.1s5.8-4.3 5.1-7.8c-.8-3.6-4.3-5.8-7.8-5.1s-5.8 4.2-5.1 7.8z"/><path fill="#F8DDDE" d="M-143 132.1c1 4.7-2 9.4-6.7 10.4s-9.4-2-10.4-6.7 2-9.4 6.7-10.4c4.7-1.1 9.4 1.9 10.4 6.7zm-15 3.2c.8 3.6 4.3 5.8 7.8 5.1 3.6-.8 5.8-4.3 5.1-7.8-.8-3.6-4.3-5.8-7.8-5.1-3.6.7-5.9 4.2-5.1 7.8z" opacity=".5"/><path d="M200.2 525.1l-1 .5v4.4c0 2.4.1 3.4.1 4.5v.2c0 .4-.1.5-.7.9-.3.2-.4.3-.5.3-.2 0-.2-.2-.2-.5v-1.3h-3.1v1.2c0 .4-.1.4-.7.8-.3.2-.5.2-.6.2-.1 0-.2-.1-.2-.4v-.5c.1-.9.1-2 .1-4.1v-4.6c0-1.1 0-2.2-.1-3.3h-4.1v3.7c2.9 1.4 3.9 2.3 3.9 3.4 0 .9-.5 1.3-1 1.3-.3 0-.4-.2-.6-1-.3-.9-1.2-2.1-2.3-3v15.8c0 .4-.1.5-.7.9-.3.2-.4.3-.6.3-.2 0-.2-.2-.2-.5v-.5c.1-1.2.1-2.8.1-6.7v-9.5c-1.5 4.2-3 7.1-4.9 9.7l-.4-.4c2.2-3.8 4.2-8.9 5.2-13.5h-2c-.7 0-1.6.1-2.1.4l-.9-1.2c.8.1 1.6.1 2.3.1h2.8v-3.2c0-2.2 0-3.4-.1-4.6l2.4 1.1c.2.1.4.2.4.3s-.1.2-.4.3l-.9.4v5.7h1.5l1.4-1.6 1.6 1.8c.2.2.2.3.2.4 0 .1-.1.1-.4.1h-.3l1.9 1.3h2.3l.9-1.2 1.9 1.3.2.2s-.1 0-.2.1zm11.4 17.6h-18c-.7 0-1.6.1-2.1.4l-.9-1.2c.8.1 1.6.1 2.3.1h15.6l1.4-1.8 1.8 2c.2.2.3.3.3.4 0 .1-.1.1-.4.1zm-1.1-23.9c-.5 0-1.4.2-2 .6-1.4.8-1.8 1.1-5.6 4.1v13.8c0 2.2-.2 2.7-1.9 3.6-.1.1-.2.1-.2.1-.1 0-.1-.1-.2-.2-.2-1.2-1.1-1.7-3.8-2.3l.1-.5c1.6.3 2.6.4 3.3.4 1.1 0 1.2-.3 1.2-.8v-11.8c0-2.5 0-3.7-.1-4.7l1.8 1.3 4.2-4.1H197c-.7 0-1.6.2-2.1.4l-.9-1.2c.8.1 1.7.1 2.3.1h10.9l1.3-1.1 2.1 1.9.2.2c0 .1-.1.2-.3.2zm-12.7 6.4h-3.1v8.1h3.1v-8.1zm13.2-.2l-1.1.5c-.6 2.5-1.1 4.5-1.7 6.2 1.3 1.7 2.7 4.1 2.7 5.3 0 .7-.3 1.2-.9 1.2-.3 0-.7-.5-.8-1.2-.2-1.2-.6-2.4-1.5-3.9-.9 2.1-2.1 3.8-3.9 5.8l-.4-.3c1.7-2.5 2.8-4.7 3.5-6.9-.8-1.3-1.9-2.7-3.3-4.4l.4-.3c1.3 1.2 2.4 2.4 3.3 3.4.5-1.8.9-3.7 1.2-5.7h-2.2c-.8 0-1.6.1-2.1.4l-.9-1.1c.8.1 1.6.1 2.3.1h2.6l1-1.2 1.8 1.5c.2.1.3.2.3.3-.1.2-.2.2-.3.3zm21.2 10.3c2.5 3.6 5.9 5.5 12.6 5.7v.4c-1.9.3-2.5.6-3 1.5-.1.1-.2.2-.3.2-.1 0-6.9-1.6-10.1-7.8h-.8v6.4c0 .3.1 2 .1 2.3 0 .5-1.1.8-1.2.8-.2 0-.3-.2-.3-.6v-8.9c-3.4 4.4-7.8 7.2-13.9 8.9l-.1-.5c5.6-2.1 9.3-4.9 12-8.4H218c-.8 0-1.7.2-2.1.4l-.8-1.2c.8.1 1.6.1 2.3.1h11.8c0-1.3 0-2-.1-3.6l2.1 1.1c.3.2.4.3.4.4 0 .1-.1.2-1 .7v1.4h9.9l1.4-1.8 1.9 1.9c.2.2.3.3.3.4 0 .1-.2.2-.4.2h-11.5zm-8.2-9.7l-4.3 4.7c-.9 1-1.2 1.5-1.5 2.1-.1.2-.2.3-.4.3-.1 0-.2-.1-.3-.1l-1.5-1.2 7.6-6.2.4.4zm-6.7-7.8c3.4 1.8 4.5 2.8 4.8 4 0 .2.1.4.1.5 0 .8-.4 1.4-1.1 1.4-.4 0-.6-.3-.7-1.2-.1-1-1.4-2.9-3.3-4.4l.2-.3zm11.2 1.7c.5-1.8.8-3.7.8-4.8l2.3.9c.1.1.2.2.2.3 0 .1-.1.3-.3.3-.4.1-.8.3-1.1.8l-1.3 2.6h3.6l.9-1.3 1.8 1.3c.2.1.3.2.3.3 0 .2-.1.2-1 .6v6c0 2 0 2.9.2 4.4v.3c0 .4-.2.6-.7.8-.3.1-.5.2-.6.2-.2 0-.2-.1-.2-.4v-1.1h-6.7c0 1.1 0 1.2-.6 1.4-.3.1-.4.2-.6.2-.2 0-.3-.2-.3-.7v-.3c.1-1.8.1-2.6.1-4.3v-5.9c0-.7 0-2.2-.1-3.1l1.8 1.6h1.5zm-2 5.2h6.7v-4.6h-6.7v4.6zm6.7.6h-6.7v4.7h6.7v-4.7zm3 .7c2.7 1.1 4.7 2 6 3.3.5.4.7 1.1.7 1.6 0 .8-.4 1.2-.8 1.2-.3 0-.6-.2-.8-.5-.8-1.7-2.8-3.6-5.3-5.1l.2-.5zm7-7.1c.1.1.1.2.1.2 0 .1-.1.2-.3.3-.6.1-1.6.8-6.3 5.1l-.3-.3c2-2.3 4-5 5.1-6.5l1.7 1.2zm33 13.6c.2.2.3.4.3.5s-.1.2-.4.2h-7.5c-1 2-2.2 3.7-3.5 5.1 4 1.1 7.2 2.4 8.1 3.2.4.4.6.9.6 1.3 0 .5-.3.9-.6.9-.2 0-.6-.2-1.4-.8-1.7-1.3-4.6-2.6-7.7-3.7-3.5 3.1-8.4 4.7-16 5.4v-.5c7.2-1.4 11.5-3 14.4-5.4-2.8-.9-5.7-1.5-8.2-1.7.8-1.2 1.7-2.5 2.5-3.9h-6.9c-.7 0-1.6.1-2.1.4l-.9-1.2c.8.1 1.6.1 2.3.1h8.1c.9-1.5 1.7-3 2.2-4.1l1.8 1c.2.1.3.1.3.2s-.1.1-.3.2l-.9.4-1.4 2.2h14l1.5-1.8 1.7 2zm-.9-15.3c.2.2.3.4.3.5s-.2.2-.4.2h-9.5v3.9h4.5l.8-1.2 2 1.2c.2.1.3.2.3.3 0 .1-.1.2-.2.3l-.9.8v2.9c0 .5.1 2.7.1 3 0 .4-.2.5-.7.8-.3.1-.5.2-.6.2-.2 0-.3-.2-.3-.4v-1.4H253v1c0 .4-.1.5-.7.8-.3.1-.5.2-.6.2-.2 0-.2-.1-.2-.4 0-.3.1-1.7.1-2v-4.2c0-.7 0-2.2-.1-3.1l1.7 1.2h4.6v-3.9h-7.7c-.7 0-1.6.1-2.1.4l-1-1.3c.8.1 1.6.1 2.3.1h22.8l1.2-1.7 2 1.8zm-17.5 10.4v-5.1H253v5.1h4.8zm-1.7 9c2.5.3 5 .8 7.3 1.3 1.3-1.3 2.3-2.9 3.2-4.7h-8.4l-2.1 3.4zm8.1-14.8v-3.9h-5v3.9h5zm0 5.8v-5.1h-5v5.1h5zm6.5 0v-5.1h-5v5.1h5zm37.9 12c-1.8 0-2.3.3-3.1 1.2-.1.1-.2.2-.3.2-.1 0-.2-.1-.4-.2-5-3.7-8-7.7-10.3-15.9v16.8c0 2.4-.2 2.6-2.3 3.4h-.2c-.2 0-.3-.1-.4-.5-.2-1.1-.9-1.5-4.1-2.5l.1-.5c2 .4 3.2.5 4 .5 1.2 0 1.4-.4 1.4-1.1v-9.2l-8.8 5.4c-1 .6-2 1.4-2.4 2.2-.2.3-.3.4-.4.4-.1 0-.2-.1-.3-.2l-1.7-1.6 13.6-6.8v-8.6h-10.5c-.7 0-1.6.1-2.1.4l-.9-1.2c.8.1 1.6.1 2.3.1H293v-2.2c0-1.3-.1-3.5-.1-4.7l2.3 1.1c.3.2.5.3.5.4s-.1.2-1.2.9v4.5h9.8l1.3-1.6 1.9 1.6c.3.3.4.4.4.5 0 .1-.2.2-.5.2h-12.8v.6c1.1 3.2 2.5 6.4 3.4 7.9 1.8-2 4-4.8 5.3-6.7l1.2 1.4c.3.3.4.5.4.7 0 .2-.2.2-.5.2s-.6.1-.9.3l-5.2 4.7c2.7 4.4 6 6.7 10.4 7.5v.4zM282.8 525c2.2 1.3 4.4 3.3 4.7 4.3.1.3.1.6.1.9 0 1-.5 1.7-1.1 1.7-.5 0-.7-.4-.9-1.4-.2-1.2-.9-2.9-3.1-5.2l.3-.3zm15.1-8.3c2.5.5 4.4 1.2 4.8 2.1.2.3.3.7.3 1 0 .8-.5 1.6-1 1.6-.4 0-.5-.1-.8-1-.3-1.1-1.3-2.3-3.5-3.3l.2-.4zm21.6 30.4c-4.8-3-6.8-7.9-6.8-13.4s2.1-10.4 6.8-13.3l.4.5c-3.5 2.6-5.3 7.6-5.3 12.9 0 5.3 1.8 10.3 5.3 12.9l-.4.4zm8.8-29.1c.3-.7 1.2-1.1 2-1.1 1.2 0 3.2.7 3.2 1.9 0 .7-.7.8-1.1 2.9-.4 2.5-.9 9.2-1 13.3 0 5.2 2.4 6.2 6.4 6.2 4.9 0 8.9-2.5 11.8-8l.8.4c-2.7 6.3-7.2 9.1-12.6 9.1-4.1 0-7.8-1.6-7.8-7.6 0-4.4.4-11.3.8-15.7v-.2c0-.3-.1-1.2-1.5-1.2-.3 0-.7 0-.9.1l-.1-.1zm33.8-.9c.4-.6 1.2-1 1.8-1 1.4 0 2.9.8 2.9 1.6 0 .7-.6.6-1 2.2-.2.7-.5 1.6-.7 2.3 1.3-.2 3.8-.8 4.7-1.2.9-.4 1.3-.8 1.4-1.4 2.4-.1 3.2.1 3.2.6 0 .6-.6.9-2.1 1.4-1.7.6-5.2 1.4-7.5 1.9-1.5 4.6-4.4 10.8-6.6 13.9-.2.3-.6.6-.8.6-.4 0-.8-.5-.8-1.1 0-.4.2-1.1.5-1.4 2-1.7 5.1-7.4 6.3-11.8-1.2.2-2.5.3-3 .3-1.9 0-3.4-.5-3.8-2.1l.5-.4c.6 1.1 1.5 1.4 2.9 1.4.9 0 2.4-.1 3.7-.4.4-1.7.6-2.9.6-3.9 0-.5 0-1.2-1.4-1.2-.2 0-.4 0-.7.1l-.1-.4zm9.2 8.6c2.7-1.3 4.6-1.6 6.2-1.6 3.8 0 5.4 1.3 5.4 2.3 0 .3-.3.4-.6.4-.4 0-1-.2-1.2-.3-.3-.2-.9-.3-1.4-.3-.4 0-.9.1-1.2.1-3.4.8-3.8 2.4-3.8 4.6v.9c0 1.2.3 2.3.4 3.3 0 .3.1.8.2 1.1 2.9 1.1 7.2 2.9 7.2 5.1 0 .4-.6.6-1 .6-.5 0-1.9-2.6-6-4.3.1.5.1 1.7.1 2.5 0 1.8-1.8 3.4-5.7 3.4-3.7 0-6.1-1.8-6.1-4.1 0-2.2 2.7-4 6.2-4 1.1 0 2.9.2 3.9.5-.1-1.1-.4-2.8-.4-3.9v-.6c0-2.5.6-4.5 4.9-5.8v-.2c-.4-.1-.8-.1-1.4-.1-1.3 0-3 .3-5.4 1.2l-.3-.8zm2.7 11.2c-1.1-.4-2.9-.7-4.2-.7-2.5 0-4.8 1.2-4.8 2.9 0 1.9 1.6 3 4.8 3 3.1 0 4.4-1 4.4-2.4 0-1-.1-2.3-.2-2.8zm36-17.3c1.5 0 2.9 0 2.9.7 0 1.6-8.3 3.1-9.6 3.4.7 2.8 2.6 6.3 5 7.6.8.4.9 1.2.9 1.7s-.4.7-.9.7-1-1-2.5-1.4c-1.5-.5-3-.6-4.5-.6-4.9 0-7.8 2.7-7.8 5.2 0 3.8 4.7 5 9.3 5 1.7 0 4.9-.2 5.3-.7 1.1.2 2 .7 2 1.2 0 .7-2.1.9-7 .9-5.7 0-10.9-1.6-10.9-6.2 0-1.6 1.1-6.3 10.1-6.3 1 0 2.3 0 3.6.3v-.1c-1.3-1.2-2.7-3.4-3.8-7.1-2.4.4-5.6.7-6.9.7-2 0-3-.2-3.5-.4-.8-.4-1.8-1.3-2.2-2.1l.6-.4c1.3 1.5 2.7 1.8 4.5 1.8 1.9 0 5.3-.4 7.3-.7-.3-1.2-.7-2.8-.9-3.8-.2-1.2-1-1.2-1.5-1.2-.4 0-.8.1-1.2.3l-.2-.3c.3-.8 1.1-1.2 2-1.2 1.1 0 2.8.5 2.8 1.2 0 .5-.4.4-.4 1.1 0 .4.3 2.5.6 3.7 1.7-.3 6.2-1.3 6.8-2.7l.1-.3zm9.9.8c.3-.5.7-.7 1.2-.7 1.3 0 3.1 1.3 3.1 2.8 0 .4-.3.8-.5 1.2-.8 2.2-.9 6.2-.9 7.6 0 4.9 2.7 7.6 3.3 7.6.4 0 .7-.4 1.5-1.5.8-1 2.8-4.4 4.5-7.4l.7.3c-1.3 2.5-3.9 7.1-4.5 8.6-.1.2-.1.4-.1.6 0 .2 0 .4.1.4.4.3.6.8.6 1.1 0 .3-.5.4-1.1.4-.4 0-1.9-.6-2.7-1.3-2.7-2.7-3.5-6.2-3.5-8.9 0-2.5.2-5.9.4-8v-.4c.1-1-.3-2.3-2.1-2.4zm19.4 1.3c5.3 1.6 8 6.7 8 10.5 0 1.1-.2 2.2-.9 2.2-.4 0-.8-.4-.8-1.4-.1-4.5-2.4-8.9-6.7-10.7l.4-.6zm12.7-1.3c4.8 3 6.8 7.9 6.8 13.4s-2.1 10.4-6.8 13.3l-.4-.5c3.5-2.6 5.3-7.6 5.3-12.9 0-5.3-1.8-10.3-5.3-12.9l.4-.4zM104.4 590c0-1.8 0-3.5-.1-5.2-.1-1.7-.1-3.4-.2-5.2 1 .1 2 .1 3 .1s2 .1 3 .1 2 0 3-.1 2-.1 3-.1c2.3 0 4.4.3 6 .9 1.7.6 3 1.5 4.1 2.6 1.1 1.1 1.8 2.5 2.3 4.2.5 1.6.7 3.5.7 5.5 0 2.7-.5 4.9-1.4 6.7-.9 1.8-2.1 3.3-3.5 4.4-1.4 1.1-3 1.9-4.7 2.4-1.7.5-3.4.7-4.9.7h-8.1c-.9 0-1.8 0-2.7.1.1-1.7.2-3.3.2-5 .1-1.7.1-3.4.1-5.2V590zm3.3 6.9c0 2.9.1 5.7.2 8.5.6.1 1.3.2 2.3.3 1 .1 1.9.1 3 .1 1.5 0 2.9-.2 4.4-.5 1.5-.3 2.8-1 3.9-2s2.1-2.3 2.8-3.9c.7-1.7 1.1-3.8 1.1-6.5 0-2.3-.3-4.2-.9-5.7-.6-1.5-1.4-2.7-2.4-3.5-1-.9-2.2-1.5-3.6-1.8-1.4-.3-2.9-.5-4.6-.5-1.2 0-2.3 0-3.4.1-1 .1-2 .2-2.8.3-.1 1.3-.1 2.6-.2 4 0 1.4-.1 2.8-.1 4.3v6.8zm25.3 1.4c0-3.3.8-5.9 2.3-7.7 1.6-1.9 3.8-2.8 6.8-2.8 1.4 0 2.6.2 3.7.7 1 .4 1.9 1 2.6 1.8.7.7 1.2 1.6 1.5 2.6.3 1 .5 2 .5 3.2v.8c0 .3 0 .5-.1.8-1.4 0-2.9-.1-4.3-.1h-6.9c-.9 0-1.7.1-2.6.1v1.1c0 1 .2 2 .5 2.9.3.9.8 1.7 1.3 2.3.6.7 1.3 1.2 2.2 1.6.9.4 1.8.6 3 .6.5 0 1.1-.1 1.6-.2s1.1-.3 1.6-.6l1.5-.9c.5-.3.9-.7 1.2-1.1l.2.1-.2 2c-.8.6-1.8 1.2-3 1.6s-2.4.7-3.7.7c-1.4 0-2.8-.2-3.9-.7-1.2-.4-2.2-1.1-3.1-1.9-.9-.8-1.5-1.8-2-3-.4-1.3-.7-2.6-.7-3.9zm9.3-9.3c-1 0-1.8.2-2.5.7-.7.5-1.2 1-1.7 1.7s-.8 1.4-1 2.2c-.2.8-.4 1.6-.4 2.3.8 0 1.7.1 2.6.1h5.3c.9 0 1.8-.1 2.6-.1 0-.7-.1-1.5-.2-2.3-.1-.8-.4-1.5-.7-2.2-.4-.7-.9-1.3-1.5-1.7-.6-.4-1.5-.7-2.5-.7zm13.4-3.4c0-1.1 0-2.1-.1-3.2 0-1-.1-2-.1-3 0-.9-.1-1.8-.1-2.4.7.1 1.3.2 1.8.2s1.1-.1 1.8-.2c-.1.7-.1 1.5-.1 2.4 0 .9-.1 1.9-.1 3 0 1 0 2.1-.1 3.2v13.2c0 1.1 0 2.1.1 3.2 0 1 .1 2 .1 3 0 .9.1 1.7.1 2.3-.6-.1-1.2-.1-1.8-.1-.6 0-1.2 0-1.8.1.1-.6.1-1.4.1-2.3 0-.9.1-1.9.1-3 0-1 0-2.1.1-3.2v-13.2zm10.6-4.4c0-.6.2-1 .6-1.4.4-.4.9-.6 1.4-.6s1 .2 1.4.6c.4.4.6.9.6 1.4 0 .6-.2 1-.6 1.4-.4.4-.9.6-1.4.6s-1-.2-1.4-.6c-.4-.4-.6-.8-.6-1.4zm.5 14.4c0-1.2 0-2.5-.1-3.8 0-1.3-.1-2.6-.3-3.7.7.1 1.3.2 1.8.2s1.1-.1 1.8-.2c-.1 1.1-.2 2.4-.3 3.7 0 1.3-.1 2.6-.1 3.8v4.2c0 1.2 0 2.5.1 3.8s.1 2.5.3 3.6c-.6-.1-1.2-.1-1.8-.1-.6 0-1.2 0-1.8.1.1-1.1.2-2.3.3-3.6s.1-2.6.1-3.8v-4.2zm9.1-1.3c0-1.1.2-2.1.6-2.9.4-.8 1-1.5 1.7-2s1.5-.9 2.4-1.2c.9-.3 1.9-.4 2.9-.4h1.5c.5 0 1.1.1 1.8.1.6.1 1.2.1 1.6.1h1.2c1.5 0 2.6-.1 3.2-.2 0 .1 0 .3-.1.4v.8c0 .1 0 .3.1.4-.8-.1-1.5-.1-2.3-.2-.7-.1-1.5-.1-2.2-.1l-.1.1c.8.5 1.5 1.2 2 2.1.5.9.8 1.9.8 2.9 0 2-.7 3.6-2 4.7s-3.2 1.7-5.4 1.7h-2.2c-.5 0-.9.2-1.3.5s-.6.8-.6 1.3c0 .7.2 1.2.5 1.5.3.3 1 .5 1.9.5.7 0 1.5 0 2.2.1.7 0 1.5 0 2.2.1 1.2 0 2.3.2 3.1.4.9.3 1.6.6 2.1 1.1.5.5.9 1 1.2 1.6s.4 1.2.4 1.9c0 .9-.2 1.9-.5 2.8-.4 1-.9 1.8-1.7 2.6-.8.8-1.7 1.4-2.9 1.9s-2.6.8-4.3.8c-2.6 0-4.6-.5-6.1-1.5s-2.2-2.4-2.2-4.2c0-.7.1-1.3.4-1.9.3-.6.6-1.1 1-1.6s.9-.8 1.4-1.1c.5-.3 1-.5 1.6-.6v-.1c-.8-.2-1.5-.6-1.9-1.2-.4-.6-.6-1.2-.6-2 0-.5.1-.9.3-1.2.2-.4.4-.7.7-1 .3-.3.6-.5.9-.7.3-.2.7-.3 1-.4v-.1c-1.2-.5-2.2-1.3-2.9-2.3-1.1-.8-1.4-2.1-1.4-3.5zm14.2 17.1c0-1.6-.5-2.7-1.4-3.4-.9-.6-2.5-1-4.6-1-2 0-3.5.3-4.6 1-1.1.7-1.6 1.8-1.6 3.5 0 .9.2 1.7.5 2.3.3.6.7 1.2 1.2 1.6.5.4 1.1.7 1.9.9.7.2 1.5.3 2.3.3.8 0 1.6-.1 2.4-.3.8-.2 1.5-.5 2.1-1 .6-.4 1.1-1 1.5-1.6.1-.6.3-1.4.3-2.3zm-2.2-17.3c0-1.7-.4-3-1.2-3.8-.8-.9-1.9-1.3-3.2-1.3-1.4 0-2.6.5-3.4 1.5-.8 1-1.2 2.3-1.2 3.9 0 1.7.4 3 1.1 4 .7 1 1.9 1.5 3.4 1.5.8 0 1.4-.2 2-.5.5-.3 1-.7 1.4-1.2.4-.5.6-1.1.8-1.8.2-.9.3-1.6.3-2.3zm9.3-8.5c0-1.1 0-2.1-.1-3.2 0-1-.1-2-.1-3 0-.9-.1-1.8-.1-2.4.7.1 1.3.2 1.8.2s1.1-.1 1.8-.2c-.1.7-.1 1.5-.1 2.4s-.1 1.9-.1 2.9 0 2.1-.1 3.1v5.9h.1c.7-1.1 1.6-2 2.7-2.7 1-.6 2.3-.9 3.7-.9.7 0 1.5.1 2.3.3.8.2 1.4.6 2.1 1.1.6.5 1.1 1.2 1.5 2.1.4.9.6 2 .6 3.4 0 1.1 0 2.3-.1 3.5-.1 1.2-.1 2.5-.1 3.9v3.9c0 .4 0 .8.1 1.2-.5-.1-1.1-.1-1.7-.1-.6 0-1.1 0-1.6.1.1-1.4.1-2.8.2-4.3s.1-3 .1-4.5v-2.4c0-2-.4-3.5-1.2-4.5-.8-1-1.8-1.5-3.2-1.5-1.9 0-3.2.6-4.1 1.7-.9 1.1-1.3 2.8-1.3 4.8v2.6c0 1 0 2 .1 3 0 1 .1 2 .1 2.9 0 .9.1 1.7.1 2.3-.6-.1-1.2-.1-1.8-.1-.6 0-1.2 0-1.8.1.1-.6.1-1.4.1-2.3 0-.9.1-1.9.1-3 0-1 0-2.1.1-3.2v-10.2c-.1-.9-.1-1.9-.1-2.9zm25.6-2.8c-.1 1-.1 2-.2 3s-.1 2-.1 2.9h1.6c.8 0 1.7 0 2.6-.1v1.6c-.3 0-.7 0-1.1-.1h-3.2c0 .1-.1.5-.1 1.3 0 .7-.1 1.6-.1 2.7 0 1 0 2.1-.1 3.2v3c0 .7 0 1.5.1 2.2 0 .7.2 1.4.4 1.9.2.6.5 1 1 1.4.4.3 1 .5 1.8.5.2 0 .5 0 .9-.1s.7-.1.9-.2v1l-1.5.3c-.5.1-1.1.2-1.6.2-1.7 0-2.9-.4-3.7-1.2-.8-.8-1.2-2-1.2-3.6v-2.3c0-.8.1-1.8.1-2.8 0-1 .1-2.1.1-3.3v-4.1h-2c-.2 0-.5 0-.8.1 0-.2 0-.3.1-.5v-.9c0-.1 0-.3-.1-.4 1.2.1 2.1.1 2.6.1 0-.5 0-1.2-.1-2 0-.8 0-1.6-.1-2.5l3.3-1.4h.5zm13.8-3.1c-.6 0-1.1.1-1.5.3-.4.2-.8.5-1 .9-.3.4-.5.8-.6 1.3-.1.5-.2 1-.2 1.5s0 1.2.1 2.1c.1.9.2 1.8.3 2.6h4.2c0 .1 0 .3-.1.4v.8c0 .1 0 .3.1.4-.7 0-1.4-.1-2.1-.1h-2.1v8.7c0 2.9.1 5.8.1 8.7-.3-.1-.6-.1-.9-.1h-.8c-.6 0-1.1 0-1.8.1.2-2.9.3-5.8.3-8.6V590h-1.4c-.5 0-1 .1-1.4.1 0-.1 0-.3.1-.4v-.8c0-.1 0-.3-.1-.4h2.9c0-.8.1-1.6.2-2.5.2-.9.4-1.8.7-2.7.3-.9.7-1.7 1.1-2.5.4-.8.9-1.4 1.4-2 .5-.5 1.1-.9 1.8-1.3s1.5-.6 2.3-.6c.3 0 .6 0 .8.1 0 .5-.1 1.1-.1 1.6s-.1 1.1-.1 1.6l-.2.1c-.5-.4-1.2-.6-2-.6zm4.8 21.4c0-1.4 0-2.6.1-3.6s.1-2 .1-3v-3c0-1.1 0-2.2-.1-3.3.7.1 1.2.2 1.7.2.4 0 1-.1 1.6-.2-.1 1.6-.2 3.4-.3 5.3-.1 1.9-.1 3.9-.1 5.9 0 1.4.1 2.4.4 3.2.2.7.5 1.3.9 1.7.4.4.8.8 1.4 1.1.6.3 1.2.4 2 .4 1.1 0 2.1-.2 2.8-.7.7-.5 1.3-1.1 1.6-1.8.2-.5.3-.8.4-1.2.1-.3.2-.7.3-1.3.1-.5.1-1.3.1-2.2v-8.8c0-.5 0-1-.1-1.5.3.1.6.1.8.1.3 0 .5.1.8.1.3 0 .6 0 .8-.1.3 0 .5-.1.8-.1-.1 2.1-.2 4.1-.2 6v9.6c0 1.1.1 2.3.1 3.3-.5-.1-1.1-.1-1.6-.1s-1 0-1.6.1c0-.2 0-.5.1-.8v-2.5h-.1c-.7 1.3-1.6 2.2-2.7 2.8-1.1.6-2.3.9-3.6.9-2.1 0-3.7-.6-4.9-1.7s-1.5-2.7-1.5-4.8zm23.3-15.5c0-1.1 0-2.1-.1-3.2 0-1-.1-2-.1-3 0-.9-.1-1.8-.1-2.4.7.1 1.3.2 1.8.2s1.1-.1 1.8-.2c-.1.7-.1 1.5-.1 2.4 0 .9-.1 1.9-.1 3 0 1 0 2.1-.1 3.2v13.2c0 1.1 0 2.1.1 3.2 0 1 .1 2 .1 3 0 .9.1 1.7.1 2.3-.6-.1-1.2-.1-1.8-.1-.6 0-1.2 0-1.8.1.1-.6.1-1.4.1-2.3 0-.9.1-1.9.1-3 0-1 0-2.1.1-3.2v-13.2zm42-.7c-.1-1.7-.1-3.4-.2-5.2.3.1.7.1 1 .1.3 0 .6.1 1 .1s.6 0 1-.1.7-.1 1-.1c-.1 1.8-.2 3.5-.2 5.2-.1 1.7-.1 3.4-.1 5.2v6.9c0 1.8 0 3.5.1 5.2.1 1.7.1 3.4.2 5-.6-.1-1.3-.1-2-.1s-1.3 0-2 .1c.1-1.7.2-3.3.2-5 .1-1.7.1-3.4.1-5.2v-3.6c-1.4 0-2.8 0-4.2-.1h-8.4c-1.3 0-2.7 0-4.2.1v3.6c0 1.8 0 3.5.1 5.2.1 1.7.1 3.4.2 5-.6-.1-1.3-.1-2-.1s-1.3 0-2 .1c.1-1.7.2-3.3.2-5 .1-1.7.1-3.4.1-5.2v-7c0-1.8 0-3.5-.1-5.2-.1-1.7-.1-3.4-.2-5.2.3.1.7.1 1 .1.3 0 .6.1 1 .1s.6 0 1-.1.7-.1 1-.1c-.1 1.8-.2 3.5-.2 5.2-.1 1.7-.1 3.4-.1 5.2v1.4c1.4 0 2.8.1 4.2.1h8.4c1.3 0 2.7-.1 4.2-.1V590c0-1.7-.1-3.4-.1-5.1zm16.6-3.1h-2.2c-.8 0-1.5 0-2.3.1-.8 0-1.5.1-2.2.1-.7.1-1.3.1-1.9.2.1-.5.2-.9.2-1.3 0-.3-.1-.7-.2-1.2 1.8.1 3.5.1 5.2.1s3.4.1 5.2.1 3.5 0 5.2-.1c1.7 0 3.4-.1 5.2-.1-.1.5-.2 1-.2 1.3 0 .3.1.8.2 1.2-.6-.1-1.2-.1-1.9-.2s-1.4-.1-2.2-.1-1.5-.1-2.3-.1h-2.2c-.1 2.7-.1 5.5-.1 8.3v6.9c0 1.8 0 3.5.1 5.2.1 1.7.1 3.4.2 5-.6-.1-1.3-.1-2-.1s-1.3 0-2 .1c.1-1.7.2-3.3.2-5 .1-1.7.1-3.4.1-5.2v-7c0-2.7 0-5.5-.1-8.2zm22.3 0h-2.2c-.8 0-1.5 0-2.3.1-.8 0-1.5.1-2.2.1-.7.1-1.3.1-1.9.2.1-.5.2-.9.2-1.3 0-.3-.1-.7-.2-1.2 1.8.1 3.5.1 5.2.1s3.4.1 5.2.1 3.5 0 5.2-.1c1.7 0 3.4-.1 5.2-.1-.1.5-.2 1-.2 1.3 0 .3.1.8.2 1.2-.6-.1-1.2-.1-1.9-.2s-1.4-.1-2.2-.1-1.5-.1-2.3-.1h-2.2c-.1 2.7-.1 5.5-.1 8.3v6.9c0 1.8 0 3.5.1 5.2.1 1.7.1 3.4.2 5-.6-.1-1.3-.1-2-.1s-1.3 0-2 .1c.1-1.7.2-3.3.2-5 .1-1.7.1-3.4.1-5.2v-7c0-2.7-.1-5.5-.1-8.2zm16.8 8.2c0-1.8 0-3.5-.1-5.2-.1-1.7-.1-3.4-.2-5.2.6.1 1.3.1 1.9.1s1.3.1 1.9.1h1.2c.5 0 .9 0 1.4-.1s.9 0 1.3-.1h2.6c.6 0 1.2.1 1.9.2s1.3.3 1.9.6c.6.3 1.2.7 1.7 1.2s.9 1.1 1.3 1.9c.3.8.5 1.7.5 2.8 0 1.8-.4 3.2-1.1 4.3-.8 1.1-1.7 1.9-2.8 2.6s-2.3 1-3.5 1.2c-1.2.2-2.3.3-3.3.3h-1.7c-.5 0-1 0-1.6-.1v2.2c0 1.8 0 3.5.1 5.2.1 1.7.1 3.4.2 5-.6-.1-1.3-.1-2-.1s-1.3 0-2 .1c.1-1.7.2-3.3.2-5 .1-1.7.1-3.4.1-5.2V590zm3.2 3c.9.2 1.9.3 2.8.3.8 0 1.7-.1 2.6-.3.9-.2 1.7-.5 2.4-1s1.3-1.2 1.8-2c.5-.9.7-2 .7-3.3 0-1.1-.2-2.1-.5-2.8s-.8-1.3-1.3-1.7c-.6-.4-1.3-.7-2.1-.8-.8-.1-1.8-.2-2.8-.2h-3.6V593zm30.1-3c0-1.8 0-3.5-.1-5.2-.1-1.7-.1-3.4-.2-5.2.8.1 1.5.1 2.3.1.7 0 1.5.1 2.3.1s1.5 0 2.3-.1c.7-.1 1.5-.1 2.3-.1 1.1 0 2.2.1 3.2.3 1 .2 1.9.6 2.7 1.1s1.4 1.1 1.8 1.9c.4.8.7 1.8.7 3 0 1.3-.3 2.4-.9 3.3s-1.3 1.7-2.1 2.3c-.8.6-1.7 1.1-2.7 1.4-.9.3-1.8.6-2.6.7.3.4.8 1 1.3 1.7.6.7 1.2 1.5 1.9 2.4.7.9 1.4 1.8 2.2 2.7.7.9 1.5 1.9 2.2 2.7.7.9 1.3 1.7 2 2.4.6.7 1.1 1.3 1.5 1.6-.4-.1-.8-.1-1.2-.1h-2.4c-.4 0-.8 0-1.2.1-.4-.6-1-1.4-1.8-2.5s-1.7-2.3-2.7-3.6-2-2.6-3-3.8c-1-1.3-2-2.3-2.8-3.2H399v2.9c0 1.8 0 3.5.1 5.2.1 1.7.1 3.4.2 5-.6-.1-1.3-.1-2-.1s-1.3 0-2 .1c.1-1.7.2-3.3.2-5 .1-1.7.1-3.4.1-5.2V590zm3.3 2.3c.4.1.8.1 1.2.2h1.5c.8 0 1.7-.1 2.6-.3s1.7-.5 2.5-1c.7-.5 1.4-1.1 1.9-1.9.5-.8.7-1.8.7-3 0-1-.2-1.9-.6-2.6-.4-.7-.9-1.2-1.5-1.6-.6-.4-1.3-.7-2-.8-.7-.1-1.4-.2-2.1-.2-.9 0-1.7 0-2.3.1s-1.1.1-1.6.1c-.1 1.5-.1 2.9-.2 4.4-.1 1.4-.1 2.9-.1 4.3v2.3zm18.6 6c0-3.3.8-5.9 2.3-7.7 1.6-1.9 3.8-2.8 6.8-2.8 1.4 0 2.6.2 3.7.7 1 .4 1.9 1 2.6 1.8.7.7 1.2 1.6 1.5 2.6.3 1 .5 2 .5 3.2v.8c0 .3 0 .5-.1.8-1.4 0-2.9-.1-4.3-.1h-6.9c-.9 0-1.7.1-2.6.1v1.1c0 1 .2 2 .5 2.9s.8 1.7 1.3 2.3 1.3 1.2 2.2 1.6c.9.4 1.8.6 3 .6.5 0 1.1-.1 1.6-.2.6-.1 1.1-.3 1.6-.6l1.5-.9c.5-.3.9-.7 1.2-1.1l.2.1-.2 2c-.8.6-1.8 1.2-3 1.6-1.2.5-2.4.7-3.7.7-1.4 0-2.8-.2-3.9-.7-1.2-.4-2.2-1.1-3.1-1.9-.9-.8-1.5-1.8-2-3s-.7-2.6-.7-3.9zm9.3-9.3c-1 0-1.8.2-2.5.7-.7.5-1.2 1-1.7 1.7s-.8 1.4-1 2.2-.4 1.6-.4 2.3c.8 0 1.7.1 2.6.1h5.3c.9 0 1.8-.1 2.6-.1 0-.7-.1-1.5-.2-2.3-.1-.8-.4-1.5-.7-2.2-.4-.7-.9-1.3-1.5-1.7-.6-.4-1.5-.7-2.5-.7zm29 17.3v2.9c0 1.1 0 2.1.1 3.1s.1 2 .1 3 .1 1.8.1 2.4c-.7-.1-1.3-.2-1.8-.2s-1.1.1-1.8.2c.1-.7.1-1.5.1-2.4s.1-1.9.1-3 0-2.1.1-3.1v-5.9h-.1c-.8 1.5-1.7 2.6-2.9 3.3-1.1.7-2.4 1-3.7 1-1 0-2-.2-3-.5s-1.9-.8-2.7-1.6c-.8-.8-1.5-1.8-2-3-.5-1.3-.8-2.8-.8-4.6 0-1.8.3-3.3.8-4.5.5-1.3 1.2-2.3 2-3.1.8-.8 1.7-1.4 2.7-1.8 1-.4 2-.6 3-.6 1.8 0 3.2.4 4.3 1.2 1 .8 1.8 1.9 2.2 3.1h.1c0-.6 0-1.3-.1-1.9s-.1-1.3-.2-2c.7.1 1.3.2 1.8.2s1.1-.1 1.8-.2c-.1.7-.1 1.5-.1 2.5s-.1 2-.1 3c0 1.1 0 2.1-.1 3.2v9.3zm-3-9c0-1-.1-2-.3-2.9-.2-.9-.6-1.8-1-2.5s-1.1-1.3-1.8-1.8c-.7-.4-1.6-.7-2.6-.7-.6 0-1.3.1-2 .4-.7.3-1.3.7-1.9 1.4-.6.7-1 1.5-1.4 2.7s-.5 2.6-.5 4.3c0 1.1.1 2.2.3 3.2.2 1 .6 1.8 1 2.5s1 1.3 1.7 1.7c.7.4 1.5.6 2.3.6 1 0 1.9-.3 2.7-.8.8-.5 1.4-1.2 1.9-2s.9-1.8 1.2-2.9c.3-1 .4-2.1.4-3.2zm8.6 3.8c0-1.4 0-2.6.1-3.6s.1-2 .1-3v-3c0-1.1 0-2.2-.1-3.3.7.1 1.2.2 1.7.2.4 0 1-.1 1.6-.2-.1 1.6-.2 3.4-.3 5.3-.1 1.9-.1 3.9-.1 5.9 0 1.4.1 2.4.4 3.2.2.7.5 1.3.9 1.7.4.4.8.8 1.4 1.1.6.3 1.2.4 2 .4 1.1 0 2.1-.2 2.8-.7.7-.5 1.3-1.1 1.6-1.8.2-.5.3-.8.4-1.2.1-.3.2-.7.3-1.3.1-.5.1-1.3.1-2.2v-8.8c0-.5 0-1-.1-1.5.3.1.6.1.8.1s.5.1.8.1c.3 0 .6 0 .8-.1.3 0 .5-.1.8-.1-.1 2.1-.2 4.1-.2 6v9.6c0 1.1.1 2.3.1 3.3-.5-.1-1.1-.1-1.6-.1s-1 0-1.6.1c0-.2 0-.5.1-.8s0-.5 0-.8v-1.7h-.1c-.7 1.3-1.6 2.2-2.7 2.8-1.1.6-2.3.9-3.6.9-2.1 0-3.7-.6-4.9-1.7-.9-1.1-1.5-2.7-1.5-4.8zm20.6-2.8c0-3.3.8-5.9 2.3-7.7 1.6-1.9 3.8-2.8 6.8-2.8 1.4 0 2.6.2 3.7.7 1 .4 1.9 1 2.6 1.8.7.7 1.2 1.6 1.5 2.6.3 1 .5 2 .5 3.2v.8c0 .3 0 .5-.1.8-1.4 0-2.9-.1-4.3-.1h-6.9c-.9 0-1.7.1-2.6.1v1.1c0 1 .2 2 .5 2.9s.8 1.7 1.3 2.3 1.3 1.2 2.2 1.6c.9.4 1.8.6 3 .6.5 0 1.1-.1 1.6-.2.6-.1 1.1-.3 1.6-.6l1.5-.9c.5-.3.9-.7 1.2-1.1l.2.1-.2 2c-.8.6-1.8 1.2-3 1.6-1.2.5-2.4.7-3.7.7-1.4 0-2.8-.2-3.9-.7-1.2-.4-2.2-1.1-3.1-1.9-.9-.8-1.5-1.8-2-3s-.7-2.6-.7-3.9zm9.3-9.3c-1 0-1.8.2-2.5.7-.7.5-1.2 1-1.7 1.7s-.8 1.4-1 2.2-.4 1.6-.4 2.3c.8 0 1.7.1 2.6.1h5.3c.9 0 1.8-.1 2.6-.1 0-.7-.1-1.5-.2-2.3-.1-.8-.4-1.5-.7-2.2-.4-.7-.9-1.3-1.5-1.7-.7-.4-1.5-.7-2.5-.7zm12.8 15.3c.3.3.6.6 1 .9.4.3.8.5 1.3.7.5.2 1 .3 1.6.3.5 0 1-.1 1.5-.2.5-.2.9-.4 1.2-.7.4-.3.6-.7.9-1.1.2-.5.3-1 .3-1.6 0-.8-.2-1.5-.7-1.9-.5-.4-1-.8-1.7-1.1s-1.5-.5-2.3-.7c-.8-.2-1.6-.5-2.3-.9-.7-.4-1.3-.9-1.7-1.5-.5-.6-.7-1.5-.7-2.6 0-.9.1-1.7.4-2.4.3-.7.7-1.4 1.3-1.9.6-.5 1.3-1 2.1-1.3.8-.3 1.8-.5 2.8-.5 1 0 1.8.1 2.5.4.7.3 1.3.5 1.9.7-.2.4-.4.9-.6 1.5-.2.6-.3 1-.4 1.4h-.5c-.2-.6-.6-1.2-1.2-1.7s-1.4-.8-2.3-.8c-.4 0-.8.1-1.2.2-.4.1-.8.3-1.1.6-.3.3-.6.6-.8 1-.2.4-.3.9-.3 1.5 0 .9.2 1.5.7 2 .5.5 1 .8 1.7 1.1.7.3 1.5.5 2.3.7.8.2 1.6.5 2.3.8.7.4 1.3.9 1.7 1.5.5.6.7 1.5.7 2.6 0 .8-.2 1.5-.5 2.3-.3.7-.8 1.4-1.4 2-.6.6-1.4 1.1-2.3 1.4-.9.3-1.9.5-3 .5-1.2 0-2.3-.1-3.1-.4s-1.5-.5-2.1-.8c.2-.3.3-.8.5-1.4.2-.6.3-1.1.3-1.5h.5c.2.3.4.6.7.9zm18.8-21.5c-.1 1-.1 2-.2 3s-.1 2-.1 2.9h1.6c.8 0 1.7 0 2.6-.1v1.6c-.3 0-.7 0-1.1-.1h-3.2c0 .1-.1.5-.1 1.3 0 .7-.1 1.6-.1 2.7 0 1 0 2.1-.1 3.2s0 2.1 0 3c0 .7 0 1.5.1 2.2 0 .7.2 1.4.4 1.9.2.6.5 1 1 1.4.4.3 1 .5 1.8.5.2 0 .5 0 .9-.1s.7-.1.9-.2v1l-1.5.3c-.5.1-1.1.2-1.6.2-1.7 0-2.9-.4-3.7-1.2-.8-.8-1.2-2-1.2-3.6v-2.3c0-.8.1-1.8.1-2.8s.1-2.1.1-3.3v-4.1h-2c-.2 0-.5 0-.8.1 0-.2 0-.3.1-.5v-.9c0-.1 0-.3-.1-.4 1.2.1 2.1.1 2.6.1 0-.5 0-1.2-.1-2 0-.8 0-1.6-.1-2.5l3.3-1.4h.5zm7.9 21.5c.3.3.6.6 1 .9.4.3.8.5 1.3.7.5.2 1 .3 1.6.3.5 0 1-.1 1.5-.2.5-.2.9-.4 1.2-.7.4-.3.6-.7.9-1.1.2-.5.3-1 .3-1.6 0-.8-.2-1.5-.7-1.9-.5-.4-1-.8-1.7-1.1s-1.5-.5-2.3-.7c-.8-.2-1.6-.5-2.3-.9-.7-.4-1.3-.9-1.7-1.5-.5-.6-.7-1.5-.7-2.6 0-.9.1-1.7.4-2.4.3-.7.7-1.4 1.3-1.9.6-.5 1.3-1 2.1-1.3.8-.3 1.8-.5 2.8-.5 1 0 1.8.1 2.5.4.7.3 1.3.5 1.9.7-.2.4-.4.9-.6 1.5-.2.6-.3 1-.4 1.4h-.5c-.2-.6-.6-1.2-1.2-1.7s-1.4-.8-2.3-.8c-.4 0-.8.1-1.2.2-.4.1-.8.3-1.1.6-.3.3-.6.6-.8 1-.2.4-.3.9-.3 1.5 0 .9.2 1.5.7 2 .5.5 1 .8 1.7 1.1.7.3 1.5.5 2.3.7.8.2 1.6.5 2.3.8.7.4 1.3.9 1.7 1.5.5.6.7 1.5.7 2.6 0 .8-.2 1.5-.5 2.3-.3.7-.8 1.4-1.4 2-.6.6-1.4 1.1-2.3 1.4-.9.3-1.9.5-3 .5-1.2 0-2.3-.1-3.1-.4s-1.5-.5-2.1-.8c.2-.3.3-.8.5-1.4.2-.6.3-1.1.3-1.5h.5c.2.3.4.6.7.9z" fill="#4A4B4C"/></svg>